<svg viewBox="0 0 330 200" xmlns="http://www.w3.org/2000/svg"><g><g><g><g><g><line x1="50" y1="165.28571428571433" x2="45" y2="165.28571428571433" style="visibility: inherit;" fill="rgb(0, 0, 0)" stroke="rgb(204, 204, 204)" stroke-width="1px"></line><line x1="50" y1="152.5714285714286" x2="45" y2="152.5714285714286" style="visibility: inherit;" fill="rgb(0, 0, 0)" stroke="rgb(204, 204, 204)" stroke-width="1px"></line><line x1="50" y1="139.8571428571429" x2="45" y2="139.8571428571429" style="visibility: inherit;" fill="rgb(0, 0, 0)" stroke="rgb(204, 204, 204)" stroke-width="1px"></line><line x1="50" y1="127.14285714285715" x2="45" y2="127.14285714285715" style="visibility: inherit;" fill="rgb(0, 0, 0)" stroke="rgb(204, 204, 204)" stroke-width="1px"></line><line x1="50" y1="114.42857142857143" x2="45" y2="114.42857142857143" style="visibility: inherit;" fill="rgb(0, 0, 0)" stroke="rgb(204, 204, 204)" stroke-width="1px"></line><line x1="50" y1="101.7142857142857" x2="45" y2="101.7142857142857" style="visibility: inherit;" fill="rgb(0, 0, 0)" stroke="rgb(204, 204, 204)" stroke-width="1px"></line><line x1="50" y1="89.00000000000004" x2="45" y2="89.00000000000004" style="visibility: inherit;" fill="rgb(0, 0, 0)" stroke="rgb(204, 204, 204)" stroke-width="1px"></line><line x1="50" y1="76.2857142857143" x2="45" y2="76.2857142857143" style="visibility: inherit;" fill="rgb(0, 0, 0)" stroke="rgb(204, 204, 204)" stroke-width="1px"></line><line x1="50" y1="63.571428571428584" x2="45" y2="63.571428571428584" style="visibility: inherit;" fill="rgb(0, 0, 0)" stroke="rgb(204, 204, 204)" stroke-width="1px"></line><line x1="50" y1="50.85714285714286" x2="45" y2="50.85714285714286" style="visibility: inherit;" fill="rgb(0, 0, 0)" stroke="rgb(204, 204, 204)" stroke-width="1px"></line><line x1="50" y1="38.14285714285714" x2="45" y2="38.14285714285714" style="visibility: inherit;" fill="rgb(0, 0, 0)" stroke="rgb(204, 204, 204)" stroke-width="1px"></line><line x1="50" y1="25.428571428571388" x2="45" y2="25.428571428571388" style="visibility: inherit;" fill="rgb(0, 0, 0)" stroke="rgb(204, 204, 204)" stroke-width="1px"></line><line x1="50" y1="12.714285714285722" x2="45" y2="12.714285714285722" style="visibility: inherit;" fill="rgb(0, 0, 0)" stroke="rgb(204, 204, 204)" stroke-width="1px"></line><line x1="50" y1="0" x2="45" y2="0" style="visibility: inherit;" fill="rgb(0, 0, 0)" stroke="rgb(204, 204, 204)" stroke-width="1px"></line></g><g transform="translate(40, 0)"><text x="0" y="165.28571428571433" dx="0em" dy="0.3em" style="text-anchor: end; visibility: inherit; font-family: &quot;Helvetica Neue&quot;, sans-serif; font-size: 12px; font-weight: 200;" fill="rgb(50, 49, 63)" stroke="none" stroke-width="1px">0.58</text><text x="0" y="152.5714285714286" dx="0em" dy="0.3em" style="text-anchor: end; visibility: hidden; font-family: &quot;Helvetica Neue&quot;, sans-serif; font-size: 12px; font-weight: 200;" fill="rgb(50, 49, 63)" stroke="none" stroke-width="1px">0.6</text><text x="0" y="139.8571428571429" dx="0em" dy="0.3em" style="text-anchor: end; visibility: inherit; font-family: &quot;Helvetica Neue&quot;, sans-serif; font-size: 12px; font-weight: 200;" fill="rgb(50, 49, 63)" stroke="none" stroke-width="1px">0.62</text><text x="0" y="127.14285714285715" dx="0em" dy="0.3em" style="text-anchor: end; visibility: hidden; font-family: &quot;Helvetica Neue&quot;, sans-serif; font-size: 12px; font-weight: 200;" fill="rgb(50, 49, 63)" stroke="none" stroke-width="1px">0.64</text><text x="0" y="114.42857142857143" dx="0em" dy="0.3em" style="text-anchor: end; visibility: inherit; font-family: &quot;Helvetica Neue&quot;, sans-serif; font-size: 12px; font-weight: 200;" fill="rgb(50, 49, 63)" stroke="none" stroke-width="1px">0.66</text><text x="0" y="101.7142857142857" dx="0em" dy="0.3em" style="text-anchor: end; visibility: hidden; font-family: &quot;Helvetica Neue&quot;, sans-serif; font-size: 12px; font-weight: 200;" fill="rgb(50, 49, 63)" stroke="none" stroke-width="1px">0.68</text><text x="0" y="89.00000000000004" dx="0em" dy="0.3em" style="text-anchor: end; visibility: inherit; font-family: &quot;Helvetica Neue&quot;, sans-serif; font-size: 12px; font-weight: 200;" fill="rgb(50, 49, 63)" stroke="none" stroke-width="1px">0.7</text><text x="0" y="76.2857142857143" dx="0em" dy="0.3em" style="text-anchor: end; visibility: hidden; font-family: &quot;Helvetica Neue&quot;, sans-serif; font-size: 12px; font-weight: 200;" fill="rgb(50, 49, 63)" stroke="none" stroke-width="1px">0.72</text><text x="0" y="63.571428571428584" dx="0em" dy="0.3em" style="text-anchor: end; visibility: inherit; font-family: &quot;Helvetica Neue&quot;, sans-serif; font-size: 12px; font-weight: 200;" fill="rgb(50, 49, 63)" stroke="none" stroke-width="1px">0.74</text><text x="0" y="50.85714285714286" dx="0em" dy="0.3em" style="text-anchor: end; visibility: hidden; font-family: &quot;Helvetica Neue&quot;, sans-serif; font-size: 12px; font-weight: 200;" fill="rgb(50, 49, 63)" stroke="none" stroke-width="1px">0.76</text><text x="0" y="38.14285714285714" dx="0em" dy="0.3em" style="text-anchor: end; visibility: inherit; font-family: &quot;Helvetica Neue&quot;, sans-serif; font-size: 12px; font-weight: 200;" fill="rgb(50, 49, 63)" stroke="none" stroke-width="1px">0.78</text><text x="0" y="25.428571428571388" dx="0em" dy="0.3em" style="text-anchor: end; visibility: hidden; font-family: &quot;Helvetica Neue&quot;, sans-serif; font-size: 12px; font-weight: 200;" fill="rgb(50, 49, 63)" stroke="none" stroke-width="1px">0.8</text><text x="0" y="12.714285714285722" dx="0em" dy="0.3em" style="text-anchor: end; visibility: inherit; font-family: &quot;Helvetica Neue&quot;, sans-serif; font-size: 12px; font-weight: 200;" fill="rgb(50, 49, 63)" stroke="none" stroke-width="1px">0.82</text><text x="0" y="0" dx="0em" dy="0.3em" style="text-anchor: end; visibility: hidden; font-family: &quot;Helvetica Neue&quot;, sans-serif; font-size: 12px; font-weight: 200;" fill="rgb(50, 49, 63)" stroke="none" stroke-width="1px">0.84</text></g><line x1="50" y1="0" x2="50" y2="178" fill="rgb(0, 0, 0)" stroke="rgb(204, 204, 204)" stroke-width="1px"></line></g></g><g transform="translate(50, 0)" clip-path="url(#clip_0)"><clipPath id="clip_0"><rect width="280" height="178"></rect></clipPath><g><g><g><line x1="0" y1="0" x2="0" y2="178" fill="rgb(0, 0, 0)" stroke="rgb(60, 60, 60)" stroke-width="1px" opacity="0.25"></line><line x1="23.333333333333332" y1="0" x2="23.333333333333332" y2="178" fill="rgb(0, 0, 0)" stroke="rgb(60, 60, 60)" stroke-width="1px" opacity="0.25"></line><line x1="46.666666666666664" y1="0" x2="46.666666666666664" y2="178" fill="rgb(0, 0, 0)" stroke="rgb(60, 60, 60)" stroke-width="1px" opacity="0.25"></line><line x1="70" y1="0" x2="70" y2="178" fill="rgb(0, 0, 0)" stroke="rgb(60, 60, 60)" stroke-width="1px" opacity="0.25"></line><line x1="93.33333333333333" y1="0" x2="93.33333333333333" y2="178" fill="rgb(0, 0, 0)" stroke="rgb(60, 60, 60)" stroke-width="1px" opacity="0.25"></line><line x1="116.66666666666667" y1="0" x2="116.66666666666667" y2="178" fill="rgb(0, 0, 0)" stroke="rgb(60, 60, 60)" stroke-width="1px" opacity="0.25"></line><line x1="140" y1="0" x2="140" y2="178" fill="rgb(0, 0, 0)" stroke="rgb(60, 60, 60)" stroke-width="1px" opacity="0.25"></line><line x1="163.33333333333334" y1="0" x2="163.33333333333334" y2="178" fill="rgb(0, 0, 0)" stroke="rgb(60, 60, 60)" stroke-width="1px" opacity="0.25"></line><line x1="186.66666666666666" y1="0" x2="186.66666666666666" y2="178" fill="rgb(0, 0, 0)" stroke="rgb(60, 60, 60)" stroke-width="1px" opacity="0.25"></line><line x1="210" y1="0" x2="210" y2="178" fill="rgb(0, 0, 0)" stroke="rgb(60, 60, 60)" stroke-width="1px" opacity="0.25"></line><line x1="233.33333333333334" y1="0" x2="233.33333333333334" y2="178" fill="rgb(0, 0, 0)" stroke="rgb(60, 60, 60)" stroke-width="1px" opacity="0.25"></line><line x1="256.66666666666663" y1="0" x2="256.66666666666663" y2="178" fill="rgb(0, 0, 0)" stroke="rgb(60, 60, 60)" stroke-width="1px" opacity="0.25"></line><line x1="280" y1="0" x2="280" y2="178" fill="rgb(0, 0, 0)" stroke="rgb(60, 60, 60)" stroke-width="1px" opacity="0.25"></line></g><g><line x1="0" y1="165.28571428571433" x2="280" y2="165.28571428571433" fill="rgb(0, 0, 0)" stroke="rgb(60, 60, 60)" stroke-width="1px" opacity="0.25"></line><line x1="0" y1="152.5714285714286" x2="280" y2="152.5714285714286" fill="rgb(0, 0, 0)" stroke="rgb(60, 60, 60)" stroke-width="1px" opacity="0.25"></line><line x1="0" y1="139.8571428571429" x2="280" y2="139.8571428571429" fill="rgb(0, 0, 0)" stroke="rgb(60, 60, 60)" stroke-width="1px" opacity="0.25"></line><line x1="0" y1="127.14285714285715" x2="280" y2="127.14285714285715" fill="rgb(0, 0, 0)" stroke="rgb(60, 60, 60)" stroke-width="1px" opacity="0.25"></line><line x1="0" y1="114.42857142857143" x2="280" y2="114.42857142857143" fill="rgb(0, 0, 0)" stroke="rgb(60, 60, 60)" stroke-width="1px" opacity="0.25"></line><line x1="0" y1="101.7142857142857" x2="280" y2="101.7142857142857" fill="rgb(0, 0, 0)" stroke="rgb(60, 60, 60)" stroke-width="1px" opacity="0.25"></line><line x1="0" y1="89.00000000000004" x2="280" y2="89.00000000000004" fill="rgb(0, 0, 0)" stroke="rgb(60, 60, 60)" stroke-width="1px" opacity="0.25"></line><line x1="0" y1="76.2857142857143" x2="280" y2="76.2857142857143" fill="rgb(0, 0, 0)" stroke="rgb(60, 60, 60)" stroke-width="1px" opacity="0.25"></line><line x1="0" y1="63.571428571428584" x2="280" y2="63.571428571428584" fill="rgb(0, 0, 0)" stroke="rgb(60, 60, 60)" stroke-width="1px" opacity="0.25"></line><line x1="0" y1="50.85714285714286" x2="280" y2="50.85714285714286" fill="rgb(0, 0, 0)" stroke="rgb(60, 60, 60)" stroke-width="1px" opacity="0.25"></line><line x1="0" y1="38.14285714285714" x2="280" y2="38.14285714285714" fill="rgb(0, 0, 0)" stroke="rgb(60, 60, 60)" stroke-width="1px" opacity="0.25"></line><line x1="0" y1="25.428571428571388" x2="280" y2="25.428571428571388" fill="rgb(0, 0, 0)" stroke="rgb(60, 60, 60)" stroke-width="1px" opacity="0.25"></line><line x1="0" y1="12.714285714285722" x2="280" y2="12.714285714285722" fill="rgb(0, 0, 0)" stroke="rgb(60, 60, 60)" stroke-width="1px" opacity="0.25"></line><line x1="0" y1="0" x2="280" y2="0" fill="rgb(0, 0, 0)" stroke="rgb(60, 60, 60)" stroke-width="1px" opacity="0.25"></line></g></g></g><g><g><line x1="0" y1="534.0000000000002" x2="280" y2="534.0000000000002" fill="rgb(0, 0, 0)" stroke="rgb(153, 153, 153)" stroke-width="1.5px"></line></g></g><g><g><line x1="23.333333333333332" y1="0" x2="23.333333333333332" y2="178" fill="rgb(0, 0, 0)" stroke="rgb(153, 153, 153)" stroke-width="1.5px"></line></g></g><g><g><g><g><g><path stroke="rgb(0, 153, 136)" stroke-width="2px" d="M23.333333333333332,150.5266730955669L28,149.1439734867641L32.666666666666664,149.2487056595939L37.333333333333336,149.10206546102253L42,147.69841183934895L46.666666666666664,147.48890960216525L51.33333333333333,152.9778757946832L56,149.4582078967776L60.66666666666667,148.976379275322L65.33333333333333,150.0448444741113L70,149.50011592251917L74.66666666666667,149.35347572394784L79.33333333333333,149.33252171107705L84,151.59513829435622L88.66666666666666,151.69990835871016L93.33333333333333,151.09235566002985L98,151.0294936214175L102.66666666666666,149.70961815970287L107.33333333333334,148.36882657664165L112,152.537917307445L116.66666666666667,150.73617533275063L121.33333333333334,152.45410125596186L126,152.3703230960029L130.66666666666666,147.67745782647816L135.33333333333334,149.31156769820626L140,152.24459901877816L144.66666666666669,149.89816638401578L149.33333333333334,151.07140164715906L154,149.94007440975736L158.66666666666666,153.98347895486017L163.33333333333334,151.74181638445174L168,149.6258399997439L172.66666666666669,150.94567756993433L177.33333333333331,151.25994987147197L182,151.6370463200978L186.66666666666666,148.32691855090007L191.33333333333334,152.077004807336L196,150.0657605954579L200.66666666666666,150.73617533275063L205.33333333333331,150.40098690986636L210,151.4065900700433L214.66666666666669,151.05044763428828L219.33333333333334,147.99169223649164L224,152.51696329457423L228.66666666666666,149.33252171107705L233.33333333333334,152.077004807336L238,149.91912039688657L242.66666666666669,151.1970878328596L247.33333333333331,150.29621684551242L252,150.90380743571694" style="fill: none;" fill="none"></path></g><g><path stroke="rgb(238, 51, 119)" stroke-width="2px" d="M23.333333333333332,193.67655565057487L28,136.0937536443983L32.666666666666664,118.18909907341006L37.333333333333336,108.26504365035467L42,100.95921676499503L46.666666666666664,95.75879452909743L51.33333333333333,87.55323340211596L56,84.79105496406555L60.66666666666667,81.13816046714783L65.33333333333333,80.64329716137478L70,75.52381122112274L74.66666666666667,73.31049151079995L79.33333333333333,71.78994253703527L84,68.57787803241185L88.66666666666666,68.57787803241185L93.33333333333333,66.43655221802848L98,64.5650898388454L102.66666666666666,62.729624407632016L107.33333333333334,62.54069726807731L112,60.85819991997309L116.66666666666667,58.73483468805041L121.33333333333334,59.59857198170252L126,57.74514596802848L130.66666666666666,57.92505492482867L135.33333333333334,56.458501373018535L140,54.236163479941226L144.66666666666669,55.3068642786571L149.33333333333334,53.282471707889016L154,52.60766155379159L158.66666666666666,51.53699864659991L163.33333333333334,51.042135340826846L168,51.509981989860535L172.66666666666669,48.810779264995034L177.33333333333331,50.03441025529588L182,48.4239068031311L186.66666666666666,48.72082478659493L191.33333333333334,47.299248473984846L196,48.27995690277643L200.66666666666666,47.020328964505865L205.33333333333331,46.75038974625724L210,45.14890447684695L214.66666666666669,45.26583772046226L219.33333333333334,45.65274807385035L224,43.80830235140664L228.66666666666666,44.99593639373779L233.33333333333334,45.26583772046226L238,42.719603078705916L242.66666666666669,44.27614900044031L247.33333333333331,41.63992198875971L252,44.03322643893105" style="fill: none;" fill="none"></path></g><g><path stroke="rgb(51, 187, 238)" stroke-width="2px" d="M23.333333333333332,136.5528852428709L28,119.1851156779698L32.666666666666664,112.39722803660803L37.333333333333336,108.45859355585917L42,105.88170467104231L46.666666666666664,105.19033592087882L51.33333333333333,104.16377874783107L56,103.89145236355918L60.66666666666667,104.39423499788558L65.33333333333333,104.01713854925974L70,104.66659927368165L74.66666666666667,103.53527203627996L79.33333333333333,105.37888414519175L84,105.71411045960018L88.66666666666666,105.56747026102884L93.33333333333333,107.18062611988613L98,105.81884263242995L102.66666666666666,106.90826184409006L107.33333333333334,106.40547920976368L112,107.15967210701534L116.66666666666667,107.473944408553L121.33333333333334,108.33286947863444L126,108.68904980591365L130.66666666666666,109.10805428028108L135.33333333333334,109.17091631889345L140,109.25469447885243L144.66666666666669,110.59552395343782L149.33333333333334,110.70025612626759L154,110.76311816487996L158.66666666666666,111.28685481207712L163.33333333333334,111.87349138941084L168,111.78967533792769L172.66666666666669,112.56482224805016L177.33333333333331,111.74776731218611L182,113.19332895960127L186.66666666666666,113.8009195498058L191.33333333333334,114.0522919212069L196,114.68079863275801L200.66666666666666,115.26743521009175L205.33333333333331,114.84843073572432L210,115.41407540866308L214.66666666666669,114.91125488281253L219.33333333333334,114.76461468424117L224,116.10544415882657L228.66666666666666,115.602623632976L233.33333333333334,116.21017633165633L238,116.23113034452712L242.66666666666669,116.69204284463612L247.33333333333331,116.21017633165633L252,117.78146205629622" style="fill: none;" fill="none"></path></g><g><path stroke="rgb(204, 51, 17)" stroke-width="2px" d="M23.333333333333332,200.0646498203278L28,128.47301030159L32.666666666666664,105.13399122442519L37.333333333333336,92.3218059369496L42,82.29881574426379L46.666666666666664,73.82331539903369L51.33333333333333,67.9930602482387L56,62.918589438710896L60.66666666666667,56.97136315277643L65.33333333333333,52.958537067685796L70,49.88148006371088L74.66666666666667,45.83269492217471L79.33333333333333,41.54094932760512L84,40.36233346802848L88.66666666666666,37.63611408642359L93.33333333333333,34.79296146120345L98,32.9755323954991L102.66666666666666,30.58222794532773L107.33333333333334,29.673513412475558L112,26.596418516976485L116.66666666666667,26.74938660008567L121.33333333333334,23.510343330247053L126,23.42936914307731L130.66666666666666,22.331689579146257L135.33333333333334,20.613195283072343L140,19.497555136680575L144.66666666666669,17.662089705467196L149.33333333333334,16.438458715166348L154,15.916616644178106L158.66666666666666,15.088838406971519L163.33333333333334,13.451356189591536L168,13.127459440912503L172.66666666666669,12.695571848324363L177.33333333333331,10.581186907632002L182,11.831834554672213L186.66666666666666,10.563226325171314L191.33333333333334,9.879397988319369L196,9.177609069006763L200.66666666666666,8.6197700500488L205.33333333333331,7.585104090826832L210,7.342181529317571L214.66666666666669,6.784342510359608L219.33333333333334,5.938603690692332L224,5.677682655198225L228.66666666666666,5.650665998458834L233.33333333333334,4.795946887561229L238,4.481030430112554L242.66666666666669,5.173801166670643L247.33333333333331,3.9681686503546416L252,3.635291610445279" style="fill: none;" fill="none"></path></g><g><path stroke="rgb(0, 119, 187)" stroke-width="2px" d="M28,191.23300703934265L32.666666666666664,170.76461194242754L37.333333333333336,158.6553902115141L42,150.8199913842338L46.666666666666664,143.92737157004223L51.33333333333333,138.96214202472143L56,134.3111847809383L60.66666666666667,131.23151326179507L65.33333333333333,128.13088772978102L70,125.59590687070576L74.66666666666667,123.4799304859979L79.33333333333333,121.09158982549397L84,119.8555304152625L88.66666666666666,118.03283442769734L93.33333333333333,116.524448633194L98,114.99507093429568L102.66666666666666,113.94755974837713L107.33333333333334,112.96291060107096L112,111.74776731218611L116.66666666666667,110.97262040206365L121.33333333333334,110.32315967764174L126,109.38041855607716L130.66666666666666,108.22813730580468L135.33333333333334,108.06054309436254L140,107.2225341456277L144.66666666666669,107.15967210701534L149.33333333333334,106.74066763264794L154,106.09120690822603L158.66666666666666,105.88170467104231L163.33333333333334,105.31605999810355L168,104.87610151086537L172.66666666666669,104.60373723506929L177.33333333333331,104.24759479931423L182,104.0800005878721L186.66666666666666,103.70286624772208L191.33333333333334,103.49336401053839L196,103.4305398634502L200.66666666666666,103.03248940195357L205.33333333333331,102.59253091471537L210,101.62879788875581L214.66666666666669,101.58688986301424L219.33333333333334,101.25170144012996L224,101.06315321581705L228.66666666666666,100.85365097863334L233.33333333333334,100.83269696576255L238,100.35083045278277L242.66666666666669,100.09945808138167L247.33333333333331,100.4765545300075L252,100.14132821559907" style="fill: none;" fill="none"></path></g><g><path stroke="rgb(255, 112, 67)" stroke-width="2px" d="M32.666666666666664,187.52240375110085L37.333333333333336,171.58814632892611L42,160.26953125000003L46.666666666666664,151.56914470876967L51.33333333333333,144.09235126631603L56,136.8585182768958L60.66666666666667,130.91129199096136L65.33333333333333,126.49359497002195L70,122.78670505114965L74.66666666666667,118.66596390519825L79.33333333333333,115.40892216137479L84,111.91797603879658L88.66666666666666,108.85887961728234L93.33333333333333,106.58254630225046L98,103.03760475771769L102.66666666666666,101.16618027005879L107.33333333333334,99.16876646450588L112,97.10837694576809L116.66666666666667,94.46316964285715L121.33333333333334,93.03261303901674L126,90.33341031415122L130.66666666666666,88.61491601807731L135.33333333333334,87.70620148522514L140,86.03268442835127L144.66666666666669,85.04299570832934L149.33333333333334,82.88363352843695L154,81.66000253813607L158.66666666666666,80.69729258332934L163.33333333333334,78.33096689837319L168,77.69219158376966L172.66666666666669,76.34257127557483L177.33333333333331,74.12023338249752L182,73.65238673346383L186.66666666666666,72.59968440873283L191.33333333333334,70.6922629731042L196,70.5033358335495L200.66666666666666,69.45961380004883L205.33333333333331,68.74884458950588L210,67.27327285494123L214.66666666666669,66.73343230996814L219.33333333333334,65.28487723214286L224,64.35816422530583L228.66666666666666,63.260484661374775L233.33333333333334,63.25146647862026L238,61.99187643187386L242.66666666666669,60.86718021120343L247.33333333333331,59.625550746917725L252,59.31965247222355" style="fill: none;" fill="none"></path></g></g></g></g></g></g><g transform="translate(50, 178)" clip-path="url(#clip_1)"><clipPath id="clip_1"><rect width="280" height="22"></rect></clipPath><g><g><line x1="0" y1="0" x2="0" y2="5" style="visibility: inherit;" fill="rgb(0, 0, 0)" stroke="rgb(204, 204, 204)" stroke-width="1px"></line><line x1="23.333333333333332" y1="0" x2="23.333333333333332" y2="5" style="visibility: inherit;" fill="rgb(0, 0, 0)" stroke="rgb(204, 204, 204)" stroke-width="1px"></line><line x1="46.666666666666664" y1="0" x2="46.666666666666664" y2="5" style="visibility: inherit;" fill="rgb(0, 0, 0)" stroke="rgb(204, 204, 204)" stroke-width="1px"></line><line x1="70" y1="0" x2="70" y2="5" style="visibility: inherit;" fill="rgb(0, 0, 0)" stroke="rgb(204, 204, 204)" stroke-width="1px"></line><line x1="93.33333333333333" y1="0" x2="93.33333333333333" y2="5" style="visibility: inherit;" fill="rgb(0, 0, 0)" stroke="rgb(204, 204, 204)" stroke-width="1px"></line><line x1="116.66666666666667" y1="0" x2="116.66666666666667" y2="5" style="visibility: inherit;" fill="rgb(0, 0, 0)" stroke="rgb(204, 204, 204)" stroke-width="1px"></line><line x1="140" y1="0" x2="140" y2="5" style="visibility: inherit;" fill="rgb(0, 0, 0)" stroke="rgb(204, 204, 204)" stroke-width="1px"></line><line x1="163.33333333333334" y1="0" x2="163.33333333333334" y2="5" style="visibility: inherit;" fill="rgb(0, 0, 0)" stroke="rgb(204, 204, 204)" stroke-width="1px"></line><line x1="186.66666666666666" y1="0" x2="186.66666666666666" y2="5" style="visibility: inherit;" fill="rgb(0, 0, 0)" stroke="rgb(204, 204, 204)" stroke-width="1px"></line><line x1="210" y1="0" x2="210" y2="5" style="visibility: inherit;" fill="rgb(0, 0, 0)" stroke="rgb(204, 204, 204)" stroke-width="1px"></line><line x1="233.33333333333334" y1="0" x2="233.33333333333334" y2="5" style="visibility: inherit;" fill="rgb(0, 0, 0)" stroke="rgb(204, 204, 204)" stroke-width="1px"></line><line x1="256.66666666666663" y1="0" x2="256.66666666666663" y2="5" style="visibility: inherit;" fill="rgb(0, 0, 0)" stroke="rgb(204, 204, 204)" stroke-width="1px"></line><line x1="280" y1="0" x2="280" y2="5" style="visibility: inherit;" fill="rgb(0, 0, 0)" stroke="rgb(204, 204, 204)" stroke-width="1px"></line></g><g transform="translate(0, 8)"><text x="0" y="0" dx="0em" dy="0.95em" style="text-anchor: middle; visibility: hidden; font-family: &quot;Helvetica Neue&quot;, sans-serif; font-size: 12px; font-weight: 200;" fill="rgb(50, 49, 63)" stroke="none" stroke-width="1px">-5</text><text x="23.333333333333332" y="0" dx="0em" dy="0.95em" style="text-anchor: middle; visibility: inherit; font-family: &quot;Helvetica Neue&quot;, sans-serif; font-size: 12px; font-weight: 200;" fill="rgb(50, 49, 63)" stroke="none" stroke-width="1px">0</text><text x="46.666666666666664" y="0" dx="0em" dy="0.95em" style="text-anchor: middle; visibility: inherit; font-family: &quot;Helvetica Neue&quot;, sans-serif; font-size: 12px; font-weight: 200;" fill="rgb(50, 49, 63)" stroke="none" stroke-width="1px">5</text><text x="70" y="0" dx="0em" dy="0.95em" style="text-anchor: middle; visibility: inherit; font-family: &quot;Helvetica Neue&quot;, sans-serif; font-size: 12px; font-weight: 200;" fill="rgb(50, 49, 63)" stroke="none" stroke-width="1px">10</text><text x="93.33333333333333" y="0" dx="0em" dy="0.95em" style="text-anchor: middle; visibility: inherit; font-family: &quot;Helvetica Neue&quot;, sans-serif; font-size: 12px; font-weight: 200;" fill="rgb(50, 49, 63)" stroke="none" stroke-width="1px">15</text><text x="116.66666666666667" y="0" dx="0em" dy="0.95em" style="text-anchor: middle; visibility: inherit; font-family: &quot;Helvetica Neue&quot;, sans-serif; font-size: 12px; font-weight: 200;" fill="rgb(50, 49, 63)" stroke="none" stroke-width="1px">20</text><text x="140" y="0" dx="0em" dy="0.95em" style="text-anchor: middle; visibility: inherit; font-family: &quot;Helvetica Neue&quot;, sans-serif; font-size: 12px; font-weight: 200;" fill="rgb(50, 49, 63)" stroke="none" stroke-width="1px">25</text><text x="163.33333333333334" y="0" dx="0em" dy="0.95em" style="text-anchor: middle; visibility: inherit; font-family: &quot;Helvetica Neue&quot;, sans-serif; font-size: 12px; font-weight: 200;" fill="rgb(50, 49, 63)" stroke="none" stroke-width="1px">30</text><text x="186.66666666666666" y="0" dx="0em" dy="0.95em" style="text-anchor: middle; visibility: inherit; font-family: &quot;Helvetica Neue&quot;, sans-serif; font-size: 12px; font-weight: 200;" fill="rgb(50, 49, 63)" stroke="none" stroke-width="1px">35</text><text x="210" y="0" dx="0em" dy="0.95em" style="text-anchor: middle; visibility: inherit; font-family: &quot;Helvetica Neue&quot;, sans-serif; font-size: 12px; font-weight: 200;" fill="rgb(50, 49, 63)" stroke="none" stroke-width="1px">40</text><text x="233.33333333333334" y="0" dx="0em" dy="0.95em" style="text-anchor: middle; visibility: inherit; font-family: &quot;Helvetica Neue&quot;, sans-serif; font-size: 12px; font-weight: 200;" fill="rgb(50, 49, 63)" stroke="none" stroke-width="1px">45</text><text x="256.66666666666663" y="0" dx="0em" dy="0.95em" style="text-anchor: middle; visibility: inherit; font-family: &quot;Helvetica Neue&quot;, sans-serif; font-size: 12px; font-weight: 200;" fill="rgb(50, 49, 63)" stroke="none" stroke-width="1px">50</text><text x="280" y="0" dx="0em" dy="0.95em" style="text-anchor: middle; visibility: hidden; font-family: &quot;Helvetica Neue&quot;, sans-serif; font-size: 12px; font-weight: 200;" fill="rgb(50, 49, 63)" stroke="none" stroke-width="1px">55</text></g><line x1="0" y1="0" x2="280" y2="0" fill="rgb(0, 0, 0)" stroke="rgb(204, 204, 204)" stroke-width="1px"></line></g></g></g></g></svg>