<svg viewBox="0 0 330 200" xmlns="http://www.w3.org/2000/svg"><g><g><g><g><g><line x1="40" y1="178" x2="35" y2="178" style="visibility: inherit;" fill="rgb(0, 0, 0)" stroke="rgb(204, 204, 204)" stroke-width="1px"></line><line x1="40" y1="155.75" x2="35" y2="155.75" style="visibility: inherit;" fill="rgb(0, 0, 0)" stroke="rgb(204, 204, 204)" stroke-width="1px"></line><line x1="40" y1="133.5" x2="35" y2="133.5" style="visibility: inherit;" fill="rgb(0, 0, 0)" stroke="rgb(204, 204, 204)" stroke-width="1px"></line><line x1="40" y1="111.25" x2="35" y2="111.25" style="visibility: inherit;" fill="rgb(0, 0, 0)" stroke="rgb(204, 204, 204)" stroke-width="1px"></line><line x1="40" y1="89" x2="35" y2="89" style="visibility: inherit;" fill="rgb(0, 0, 0)" stroke="rgb(204, 204, 204)" stroke-width="1px"></line><line x1="40" y1="66.75" x2="35" y2="66.75" style="visibility: inherit;" fill="rgb(0, 0, 0)" stroke="rgb(204, 204, 204)" stroke-width="1px"></line><line x1="40" y1="44.5" x2="35" y2="44.5" style="visibility: inherit;" fill="rgb(0, 0, 0)" stroke="rgb(204, 204, 204)" stroke-width="1px"></line><line x1="40" y1="22.25" x2="35" y2="22.25" style="visibility: inherit;" fill="rgb(0, 0, 0)" stroke="rgb(204, 204, 204)" stroke-width="1px"></line><line x1="40" y1="0" x2="35" y2="0" style="visibility: inherit;" fill="rgb(0, 0, 0)" stroke="rgb(204, 204, 204)" stroke-width="1px"></line></g><g transform="translate(30, 0)"><text x="0" y="178" dx="0em" dy="0.3em" style="text-anchor: end; visibility: hidden; font-family: &quot;Helvetica Neue&quot;, sans-serif; font-size: 12px; font-weight: 200;" fill="rgb(50, 49, 63)" stroke="none" stroke-width="1px">0</text><text x="0" y="155.75" dx="0em" dy="0.3em" style="text-anchor: end; visibility: inherit; font-family: &quot;Helvetica Neue&quot;, sans-serif; font-size: 12px; font-weight: 200;" fill="rgb(50, 49, 63)" stroke="none" stroke-width="1px">0.5</text><text x="0" y="133.5" dx="0em" dy="0.3em" style="text-anchor: end; visibility: hidden; font-family: &quot;Helvetica Neue&quot;, sans-serif; font-size: 12px; font-weight: 200;" fill="rgb(50, 49, 63)" stroke="none" stroke-width="1px">1</text><text x="0" y="111.25" dx="0em" dy="0.3em" style="text-anchor: end; visibility: inherit; font-family: &quot;Helvetica Neue&quot;, sans-serif; font-size: 12px; font-weight: 200;" fill="rgb(50, 49, 63)" stroke="none" stroke-width="1px">1.5</text><text x="0" y="89" dx="0em" dy="0.3em" style="text-anchor: end; visibility: hidden; font-family: &quot;Helvetica Neue&quot;, sans-serif; font-size: 12px; font-weight: 200;" fill="rgb(50, 49, 63)" stroke="none" stroke-width="1px">2</text><text x="0" y="66.75" dx="0em" dy="0.3em" style="text-anchor: end; visibility: inherit; font-family: &quot;Helvetica Neue&quot;, sans-serif; font-size: 12px; font-weight: 200;" fill="rgb(50, 49, 63)" stroke="none" stroke-width="1px">2.5</text><text x="0" y="44.5" dx="0em" dy="0.3em" style="text-anchor: end; visibility: hidden; font-family: &quot;Helvetica Neue&quot;, sans-serif; font-size: 12px; font-weight: 200;" fill="rgb(50, 49, 63)" stroke="none" stroke-width="1px">3</text><text x="0" y="22.25" dx="0em" dy="0.3em" style="text-anchor: end; visibility: inherit; font-family: &quot;Helvetica Neue&quot;, sans-serif; font-size: 12px; font-weight: 200;" fill="rgb(50, 49, 63)" stroke="none" stroke-width="1px">3.5</text><text x="0" y="0" dx="0em" dy="0.3em" style="text-anchor: end; visibility: hidden; font-family: &quot;Helvetica Neue&quot;, sans-serif; font-size: 12px; font-weight: 200;" fill="rgb(50, 49, 63)" stroke="none" stroke-width="1px">4</text></g><line x1="40" y1="0" x2="40" y2="178" fill="rgb(0, 0, 0)" stroke="rgb(204, 204, 204)" stroke-width="1px"></line></g></g><g transform="translate(40, 0)" clip-path="url(#clip_0)"><clipPath id="clip_0"><rect width="290" height="178"></rect></clipPath><g><g><g><line x1="0" y1="0" x2="0" y2="178" fill="rgb(0, 0, 0)" stroke="rgb(60, 60, 60)" stroke-width="1px" opacity="0.25"></line><line x1="24.166666666666664" y1="0" x2="24.166666666666664" y2="178" fill="rgb(0, 0, 0)" stroke="rgb(60, 60, 60)" stroke-width="1px" opacity="0.25"></line><line x1="48.33333333333333" y1="0" x2="48.33333333333333" y2="178" fill="rgb(0, 0, 0)" stroke="rgb(60, 60, 60)" stroke-width="1px" opacity="0.25"></line><line x1="72.5" y1="0" x2="72.5" y2="178" fill="rgb(0, 0, 0)" stroke="rgb(60, 60, 60)" stroke-width="1px" opacity="0.25"></line><line x1="96.66666666666666" y1="0" x2="96.66666666666666" y2="178" fill="rgb(0, 0, 0)" stroke="rgb(60, 60, 60)" stroke-width="1px" opacity="0.25"></line><line x1="120.83333333333334" y1="0" x2="120.83333333333334" y2="178" fill="rgb(0, 0, 0)" stroke="rgb(60, 60, 60)" stroke-width="1px" opacity="0.25"></line><line x1="145" y1="0" x2="145" y2="178" fill="rgb(0, 0, 0)" stroke="rgb(60, 60, 60)" stroke-width="1px" opacity="0.25"></line><line x1="169.16666666666669" y1="0" x2="169.16666666666669" y2="178" fill="rgb(0, 0, 0)" stroke="rgb(60, 60, 60)" stroke-width="1px" opacity="0.25"></line><line x1="193.33333333333331" y1="0" x2="193.33333333333331" y2="178" fill="rgb(0, 0, 0)" stroke="rgb(60, 60, 60)" stroke-width="1px" opacity="0.25"></line><line x1="217.5" y1="0" x2="217.5" y2="178" fill="rgb(0, 0, 0)" stroke="rgb(60, 60, 60)" stroke-width="1px" opacity="0.25"></line><line x1="241.66666666666669" y1="0" x2="241.66666666666669" y2="178" fill="rgb(0, 0, 0)" stroke="rgb(60, 60, 60)" stroke-width="1px" opacity="0.25"></line><line x1="265.8333333333333" y1="0" x2="265.8333333333333" y2="178" fill="rgb(0, 0, 0)" stroke="rgb(60, 60, 60)" stroke-width="1px" opacity="0.25"></line><line x1="290" y1="0" x2="290" y2="178" fill="rgb(0, 0, 0)" stroke="rgb(60, 60, 60)" stroke-width="1px" opacity="0.25"></line></g><g><line x1="0" y1="178" x2="290" y2="178" fill="rgb(0, 0, 0)" stroke="rgb(60, 60, 60)" stroke-width="1px" opacity="0.25"></line><line x1="0" y1="155.75" x2="290" y2="155.75" fill="rgb(0, 0, 0)" stroke="rgb(60, 60, 60)" stroke-width="1px" opacity="0.25"></line><line x1="0" y1="133.5" x2="290" y2="133.5" fill="rgb(0, 0, 0)" stroke="rgb(60, 60, 60)" stroke-width="1px" opacity="0.25"></line><line x1="0" y1="111.25" x2="290" y2="111.25" fill="rgb(0, 0, 0)" stroke="rgb(60, 60, 60)" stroke-width="1px" opacity="0.25"></line><line x1="0" y1="89" x2="290" y2="89" fill="rgb(0, 0, 0)" stroke="rgb(60, 60, 60)" stroke-width="1px" opacity="0.25"></line><line x1="0" y1="66.75" x2="290" y2="66.75" fill="rgb(0, 0, 0)" stroke="rgb(60, 60, 60)" stroke-width="1px" opacity="0.25"></line><line x1="0" y1="44.5" x2="290" y2="44.5" fill="rgb(0, 0, 0)" stroke="rgb(60, 60, 60)" stroke-width="1px" opacity="0.25"></line><line x1="0" y1="22.25" x2="290" y2="22.25" fill="rgb(0, 0, 0)" stroke="rgb(60, 60, 60)" stroke-width="1px" opacity="0.25"></line><line x1="0" y1="0" x2="290" y2="0" fill="rgb(0, 0, 0)" stroke="rgb(60, 60, 60)" stroke-width="1px" opacity="0.25"></line></g></g></g><g><g><line x1="0" y1="178" x2="290" y2="178" fill="rgb(0, 0, 0)" stroke="rgb(153, 153, 153)" stroke-width="1.5px"></line></g></g><g><g><line x1="24.166666666666664" y1="0" x2="24.166666666666664" y2="178" fill="rgb(0, 0, 0)" stroke="rgb(153, 153, 153)" stroke-width="1.5px"></line></g></g><g><g><g><g><g><path stroke="rgb(0, 153, 136)" stroke-width="2px" d="M24.166666666666664,99.84669888019562L29,93.88344675302505L33.833333333333336,88.19432616233826L38.666666666666664,83.5261858701706L43.5,78.85318636894226L48.33333333333333,75.72384512424469L53.166666666666664,68.23327887058258L58,66.50168168544769L62.833333333333336,64.70896244049072L67.66666666666667,58.45696401596069L72.5,57.81317186355591L77.33333333333333,54.161571741104126L82.16666666666667,51.25349426269531L87,45.93240571022034L91.83333333333333,44.05639028549194L96.66666666666666,42.23314714431763L101.5,39.261337637901306L106.33333333333333,38.749698996543884L111.16666666666667,36.33595585823059L116,31.866395950317383L120.83333333333334,31.333983659744263L125.66666666666667,28.028512001037598L130.5,26.97645080089569L135.33333333333334,27.885398745536804L140.16666666666666,24.9814590215683L145,20.249141097068787L149.83333333333334,21.091068029403687L154.66666666666666,17.402090191841125L159.5,19.11073875427246L164.33333333333334,13.274043560028076L169.16666666666669,11.328333497047424L174,13.64047884941101L178.83333333333334,9.89746618270874L183.66666666666666,7.717049956321716L188.5,6.1934651136398315L193.33333333333331,6.000857949256897L198.16666666666666,4.202377676963806L203,2.9662606716156006L207.83333333333334,1.1028813123703003L212.66666666666666,-1.5065882205963135" style="fill: none;" fill="none"></path></g><g><path stroke="rgb(238, 51, 119)" stroke-width="2px" d="M24.166666666666664,88.13552761077881L29,106.73108941316605L33.833333333333336,112.78869295120239L38.666666666666664,116.03363138437271L43.5,118.30616039037704L48.33333333333333,119.55983102321625L53.166666666666664,121.33527249097824L58,122.3757798075676L62.833333333333336,123.34265631437302L67.66666666666667,123.46665632724762L72.5,124.84230053424835L77.33333333333333,124.81612658500671L82.16666666666667,125.18459892272949L87,125.98115909099579L91.83333333333333,125.85515385866165L96.66666666666666,126.2254775762558L101.5,126.6136519908905L106.33333333333333,126.89625531435013L111.16666666666667,127.16310334205627L116,127.52084934711456L120.83333333333334,127.7321029305458L125.66666666666667,127.79406315088272L130.5,128.0982729792595L135.33333333333334,127.88136976957321L140.16666666666666,128.18944150209427L145,128.29706555604935L149.83333333333334,128.19659769535065L154.66666666666666,128.61420851945877L159.5,128.3801760673523L164.33333333333334,128.91791439056396L169.16666666666669,129.13215988874435L174,128.28116703033447L178.83333333333334,129.49341768026352L183.66666666666666,128.59867602586746L188.5,129.00319987535477L193.33333333333331,129.1706144809723L198.16666666666666,129.38812243938446L203,128.76152849197388L207.83333333333334,129.53172904253006L212.66666666666666,128.96135020256042L217.5,129.13655757904053L222.33333333333334,129.50236690044403L227.16666666666666,129.07047021389008L232,129.5244985818863L236.83333333333334,129.48253220319748L241.66666666666669,129.28830707073212L246.5,129.64691776037216L251.33333333333334,129.09320133924484L256.1666666666667,129.89910328388214L261,129.09650093317032" style="fill: none;" fill="none"></path></g><g><path stroke="rgb(51, 187, 238)" stroke-width="2px" d="M24.166666666666664,113.59502989053726L29,119.28962504863739L33.833333333333336,121.56827050447464L38.666666666666664,122.81872642040253L43.5,123.50768905878067L48.33333333333333,123.80384087562561L53.166666666666664,123.94127798080444L58,124.06984543800354L62.833333333333336,123.89721089601517L67.66666666666667,123.86771613359451L72.5,123.50633633136749L77.33333333333333,123.49859660863876L82.16666666666667,123.24236351251602L87,123.07032841444016L91.83333333333333,122.82352197170258L96.66666666666666,122.42244094610214L101.5,122.21500152349472L106.33333333333333,121.86422073841095L111.16666666666667,121.65674418210983L116,121.3121806383133L120.83333333333334,120.92142277956009L125.66666666666667,120.7974864244461L130.5,120.41467517614365L135.33333333333334,120.00113844871521L140.16666666666666,119.70246684551239L145,119.55081284046173L149.83333333333334,119.04093539714813L154.66666666666666,118.81675398349762L159.5,118.54892987012863L164.33333333333334,118.3080542087555L169.16666666666669,117.92735427618027L174,117.65408211946487L178.83333333333334,117.19843047857285L183.66666666666666,117.13719171285629L188.5,116.71073246002197L193.33333333333331,116.35028100013733L198.16666666666666,116.0884141921997L203,115.90380668640137L207.83333333333334,115.55459082126617L212.66666666666666,115.23152768611908L217.5,115.11372369527817L222.33333333333334,114.84873765707016L227.16666666666666,114.52713865041733L232,114.189508497715L236.83333333333334,113.9481554031372L241.66666666666669,113.6829200387001L246.5,113.52896374464035L251.33333333333334,113.11226534843445L256.1666666666667,113.01366478204727L261,112.4985780119896" style="fill: none;" fill="none"></path></g><g><path stroke="rgb(204, 51, 17)" stroke-width="2px" d="M24.166666666666664,90.7571769952774L29,116.95679622888565L33.833333333333336,123.57904940843582L38.666666666666664,127.52021807432175L43.5,130.52122527360916L48.33333333333333,132.98177808523178L53.166666666666664,134.83150020241737L58,136.36064448952675L62.833333333333336,137.8994965851307L67.66666666666667,138.90074563026428L72.5,140.04320350289345L77.33333333333333,141.07555466890335L82.16666666666667,141.90928301215172L87,142.7458016872406L91.83333333333333,143.48893442749977L96.66666666666666,144.14502048492432L101.5,144.67770332098007L106.33333333333333,145.2178659439087L111.16666666666667,145.74125209450722L116,146.332314401865L120.83333333333334,146.60895776748657L125.66666666666667,147.07881835103035L130.5,147.45074942708015L135.33333333333334,147.81379494071007L140.16666666666666,148.2828942835331L145,148.46818080544472L149.83333333333334,148.86548745632172L154.66666666666666,149.26893177628517L159.5,149.34579321742058L164.33333333333334,149.79360699653625L169.16666666666669,149.9573718905449L174,150.31034886837006L178.83333333333334,150.4572975039482L183.66666666666666,150.92897233366966L188.5,150.89531329274178L193.33333333333331,151.20432397723198L198.16666666666666,151.23345005512238L203,151.36757165193558L207.83333333333334,151.70160514116287L212.66666666666666,152.04367542266846L217.5,152.0350577533245L222.33333333333334,152.1812478005886L227.16666666666666,152.27166038751602L232,152.53490909934044L236.83333333333334,152.60628005862236L241.66666666666669,152.6483472287655L246.5,152.83414301276207L251.33333333333334,152.89413779973984L256.1666666666667,153.11590817570686L261,153.2933011353016" style="fill: none;" fill="none"></path></g><g><path stroke="rgb(0, 119, 187)" stroke-width="2px" d="M24.166666666666664,60.7244428396225L29,85.83766281604767L33.833333333333336,96.58705019950867L38.666666666666664,102.58686310052872L43.5,106.45851218700409L48.33333333333333,109.21016663312912L53.166666666666664,111.27924013137817L58,112.92306387424469L62.833333333333336,114.25015842914581L67.66666666666667,115.35468423366547L72.5,116.28837913274765L77.33333333333333,117.10248762369156L82.16666666666667,117.81551820039749L87,118.43695586919785L91.83333333333333,118.98798805475235L96.66666666666666,119.49075174331665L101.5,119.93954956531525L106.33333333333333,120.33682173490524L111.16666666666667,120.70677942037582L116,121.04223990440369L120.83333333333334,121.35529285669327L125.66666666666667,121.6400499343872L130.5,121.90881830453873L135.33333333333334,122.14735984802246L140.16666666666666,122.36692607402802L145,122.58705991506577L149.83333333333334,122.78025591373444L154.66666666666666,122.96396160125732L159.5,123.12747186422348L164.33333333333334,123.2965150475502L169.16666666666669,123.42726278305054L174,123.58433300256729L178.83333333333334,123.71375983953476L183.66666666666666,123.83198291063309L188.5,123.94359618425369L193.33333333333331,124.0518833398819L198.16666666666666,124.14929562807083L203,124.25310552120209L207.83333333333334,124.33724516630173L212.66666666666666,124.42448282241821L217.5,124.50256967544556L222.33333333333334,124.59003013372421L227.16666666666666,124.66702950000763L232,124.72536653280258L236.83333333333334,124.7867220044136L241.66666666666669,124.84924453496933L246.5,124.9072579741478L251.33333333333334,124.94996702671051L256.1666666666667,125.00976288318634L261,125.05540019273758" style="fill: none;" fill="none"></path></g><g><path stroke="rgb(255, 112, 67)" stroke-width="2px" d="M24.166666666666664,24.23350155353546L29,73.03593862056732L33.833333333333336,89.76967006921768L38.666666666666664,98.2303381562233L43.5,103.50871235132217L48.33333333333333,107.25008583068848L53.166666666666664,110.01444000005722L58,112.27087420225143L62.833333333333336,114.24804711341858L67.66666666666667,115.79556727409363L72.5,117.29503643512726L77.33333333333333,118.39469772577286L82.16666666666667,119.58970242738724L87,120.59177106618881L91.83333333333333,121.48638010025024L96.66666666666666,122.23679369688034L101.5,123.13919550180435L106.33333333333333,123.79852014780045L111.16666666666667,124.4968563914299L116,125.14816546440125L120.83333333333334,125.78507196903229L125.66666666666667,126.34026843309402L130.5,126.96057087182999L135.33333333333334,127.51391065120697L140.16666666666666,127.96837931871414L145,128.36406534910202L149.83333333333334,128.75975668430328L154.66666666666666,129.3023276925087L159.5,129.68737757205963L164.33333333333334,130.09252738952637L169.16666666666669,130.4799803495407L174,130.87754958868027L178.83333333333334,131.25384652614594L183.66666666666666,131.61657905578613L188.5,131.90477365255356L193.33333333333331,132.21896713972092L198.16666666666666,132.58254843950272L203,132.75459414720535L207.83333333333334,133.18631047010422L212.66666666666666,133.3170104622841L217.5,133.74505054950714L222.33333333333334,133.95899632573128L227.16666666666666,134.28869313001633L232,134.4838306903839L236.83333333333334,134.83989506959915L241.66666666666669,134.8980941772461L246.5,135.1953202188015L251.33333333333334,135.45014488697052L256.1666666666667,135.8277468085289L261,135.93977916240692" style="fill: none;" fill="none"></path></g></g></g></g></g></g><g transform="translate(40, 178)" clip-path="url(#clip_1)"><clipPath id="clip_1"><rect width="290" height="22"></rect></clipPath><g><g><line x1="0" y1="0" x2="0" y2="5" style="visibility: inherit;" fill="rgb(0, 0, 0)" stroke="rgb(204, 204, 204)" stroke-width="1px"></line><line x1="24.166666666666664" y1="0" x2="24.166666666666664" y2="5" style="visibility: inherit;" fill="rgb(0, 0, 0)" stroke="rgb(204, 204, 204)" stroke-width="1px"></line><line x1="48.33333333333333" y1="0" x2="48.33333333333333" y2="5" style="visibility: inherit;" fill="rgb(0, 0, 0)" stroke="rgb(204, 204, 204)" stroke-width="1px"></line><line x1="72.5" y1="0" x2="72.5" y2="5" style="visibility: inherit;" fill="rgb(0, 0, 0)" stroke="rgb(204, 204, 204)" stroke-width="1px"></line><line x1="96.66666666666666" y1="0" x2="96.66666666666666" y2="5" style="visibility: inherit;" fill="rgb(0, 0, 0)" stroke="rgb(204, 204, 204)" stroke-width="1px"></line><line x1="120.83333333333334" y1="0" x2="120.83333333333334" y2="5" style="visibility: inherit;" fill="rgb(0, 0, 0)" stroke="rgb(204, 204, 204)" stroke-width="1px"></line><line x1="145" y1="0" x2="145" y2="5" style="visibility: inherit;" fill="rgb(0, 0, 0)" stroke="rgb(204, 204, 204)" stroke-width="1px"></line><line x1="169.16666666666669" y1="0" x2="169.16666666666669" y2="5" style="visibility: inherit;" fill="rgb(0, 0, 0)" stroke="rgb(204, 204, 204)" stroke-width="1px"></line><line x1="193.33333333333331" y1="0" x2="193.33333333333331" y2="5" style="visibility: inherit;" fill="rgb(0, 0, 0)" stroke="rgb(204, 204, 204)" stroke-width="1px"></line><line x1="217.5" y1="0" x2="217.5" y2="5" style="visibility: inherit;" fill="rgb(0, 0, 0)" stroke="rgb(204, 204, 204)" stroke-width="1px"></line><line x1="241.66666666666669" y1="0" x2="241.66666666666669" y2="5" style="visibility: inherit;" fill="rgb(0, 0, 0)" stroke="rgb(204, 204, 204)" stroke-width="1px"></line><line x1="265.8333333333333" y1="0" x2="265.8333333333333" y2="5" style="visibility: inherit;" fill="rgb(0, 0, 0)" stroke="rgb(204, 204, 204)" stroke-width="1px"></line><line x1="290" y1="0" x2="290" y2="5" style="visibility: inherit;" fill="rgb(0, 0, 0)" stroke="rgb(204, 204, 204)" stroke-width="1px"></line></g><g transform="translate(0, 8)"><text x="0" y="0" dx="0em" dy="0.95em" style="text-anchor: middle; visibility: hidden; font-family: &quot;Helvetica Neue&quot;, sans-serif; font-size: 12px; font-weight: 200;" fill="rgb(50, 49, 63)" stroke="none" stroke-width="1px">-5</text><text x="24.166666666666664" y="0" dx="0em" dy="0.95em" style="text-anchor: middle; visibility: inherit; font-family: &quot;Helvetica Neue&quot;, sans-serif; font-size: 12px; font-weight: 200;" fill="rgb(50, 49, 63)" stroke="none" stroke-width="1px">0</text><text x="48.33333333333333" y="0" dx="0em" dy="0.95em" style="text-anchor: middle; visibility: inherit; font-family: &quot;Helvetica Neue&quot;, sans-serif; font-size: 12px; font-weight: 200;" fill="rgb(50, 49, 63)" stroke="none" stroke-width="1px">5</text><text x="72.5" y="0" dx="0em" dy="0.95em" style="text-anchor: middle; visibility: inherit; font-family: &quot;Helvetica Neue&quot;, sans-serif; font-size: 12px; font-weight: 200;" fill="rgb(50, 49, 63)" stroke="none" stroke-width="1px">10</text><text x="96.66666666666666" y="0" dx="0em" dy="0.95em" style="text-anchor: middle; visibility: inherit; font-family: &quot;Helvetica Neue&quot;, sans-serif; font-size: 12px; font-weight: 200;" fill="rgb(50, 49, 63)" stroke="none" stroke-width="1px">15</text><text x="120.83333333333334" y="0" dx="0em" dy="0.95em" style="text-anchor: middle; visibility: inherit; font-family: &quot;Helvetica Neue&quot;, sans-serif; font-size: 12px; font-weight: 200;" fill="rgb(50, 49, 63)" stroke="none" stroke-width="1px">20</text><text x="145" y="0" dx="0em" dy="0.95em" style="text-anchor: middle; visibility: inherit; font-family: &quot;Helvetica Neue&quot;, sans-serif; font-size: 12px; font-weight: 200;" fill="rgb(50, 49, 63)" stroke="none" stroke-width="1px">25</text><text x="169.16666666666669" y="0" dx="0em" dy="0.95em" style="text-anchor: middle; visibility: inherit; font-family: &quot;Helvetica Neue&quot;, sans-serif; font-size: 12px; font-weight: 200;" fill="rgb(50, 49, 63)" stroke="none" stroke-width="1px">30</text><text x="193.33333333333331" y="0" dx="0em" dy="0.95em" style="text-anchor: middle; visibility: inherit; font-family: &quot;Helvetica Neue&quot;, sans-serif; font-size: 12px; font-weight: 200;" fill="rgb(50, 49, 63)" stroke="none" stroke-width="1px">35</text><text x="217.5" y="0" dx="0em" dy="0.95em" style="text-anchor: middle; visibility: inherit; font-family: &quot;Helvetica Neue&quot;, sans-serif; font-size: 12px; font-weight: 200;" fill="rgb(50, 49, 63)" stroke="none" stroke-width="1px">40</text><text x="241.66666666666669" y="0" dx="0em" dy="0.95em" style="text-anchor: middle; visibility: inherit; font-family: &quot;Helvetica Neue&quot;, sans-serif; font-size: 12px; font-weight: 200;" fill="rgb(50, 49, 63)" stroke="none" stroke-width="1px">45</text><text x="265.8333333333333" y="0" dx="0em" dy="0.95em" style="text-anchor: middle; visibility: inherit; font-family: &quot;Helvetica Neue&quot;, sans-serif; font-size: 12px; font-weight: 200;" fill="rgb(50, 49, 63)" stroke="none" stroke-width="1px">50</text><text x="290" y="0" dx="0em" dy="0.95em" style="text-anchor: middle; visibility: hidden; font-family: &quot;Helvetica Neue&quot;, sans-serif; font-size: 12px; font-weight: 200;" fill="rgb(50, 49, 63)" stroke="none" stroke-width="1px">55</text></g><line x1="0" y1="0" x2="290" y2="0" fill="rgb(0, 0, 0)" stroke="rgb(204, 204, 204)" stroke-width="1px"></line></g></g></g></g></svg>