<svg viewBox="0 0 330 200" xmlns="http://www.w3.org/2000/svg"><g><g><g><g><g><line x1="40" y1="178" x2="35" y2="178" style="visibility: inherit;" fill="rgb(0, 0, 0)" stroke="rgb(204, 204, 204)" stroke-width="1px"></line><line x1="40" y1="158.22222222222223" x2="35" y2="158.22222222222223" style="visibility: inherit;" fill="rgb(0, 0, 0)" stroke="rgb(204, 204, 204)" stroke-width="1px"></line><line x1="40" y1="138.44444444444446" x2="35" y2="138.44444444444446" style="visibility: inherit;" fill="rgb(0, 0, 0)" stroke="rgb(204, 204, 204)" stroke-width="1px"></line><line x1="40" y1="118.66666666666667" x2="35" y2="118.66666666666667" style="visibility: inherit;" fill="rgb(0, 0, 0)" stroke="rgb(204, 204, 204)" stroke-width="1px"></line><line x1="40" y1="98.8888888888889" x2="35" y2="98.8888888888889" style="visibility: inherit;" fill="rgb(0, 0, 0)" stroke="rgb(204, 204, 204)" stroke-width="1px"></line><line x1="40" y1="79.1111111111111" x2="35" y2="79.1111111111111" style="visibility: inherit;" fill="rgb(0, 0, 0)" stroke="rgb(204, 204, 204)" stroke-width="1px"></line><line x1="40" y1="59.33333333333334" x2="35" y2="59.33333333333334" style="visibility: inherit;" fill="rgb(0, 0, 0)" stroke="rgb(204, 204, 204)" stroke-width="1px"></line><line x1="40" y1="39.55555555555554" x2="35" y2="39.55555555555554" style="visibility: inherit;" fill="rgb(0, 0, 0)" stroke="rgb(204, 204, 204)" stroke-width="1px"></line><line x1="40" y1="19.7777777777778" x2="35" y2="19.7777777777778" style="visibility: inherit;" fill="rgb(0, 0, 0)" stroke="rgb(204, 204, 204)" stroke-width="1px"></line><line x1="40" y1="0" x2="35" y2="0" style="visibility: inherit;" fill="rgb(0, 0, 0)" stroke="rgb(204, 204, 204)" stroke-width="1px"></line></g><g transform="translate(30, 0)"><text x="0" y="178" dx="0em" dy="0.3em" style="text-anchor: end; visibility: hidden; font-family: &quot;Helvetica Neue&quot;, sans-serif; font-size: 12px; font-weight: 200;" fill="rgb(50, 49, 63)" stroke="none" stroke-width="1px">0</text><text x="0" y="158.22222222222223" dx="0em" dy="0.3em" style="text-anchor: end; visibility: inherit; font-family: &quot;Helvetica Neue&quot;, sans-serif; font-size: 12px; font-weight: 200;" fill="rgb(50, 49, 63)" stroke="none" stroke-width="1px">0.5</text><text x="0" y="138.44444444444446" dx="0em" dy="0.3em" style="text-anchor: end; visibility: hidden; font-family: &quot;Helvetica Neue&quot;, sans-serif; font-size: 12px; font-weight: 200;" fill="rgb(50, 49, 63)" stroke="none" stroke-width="1px">1</text><text x="0" y="118.66666666666667" dx="0em" dy="0.3em" style="text-anchor: end; visibility: inherit; font-family: &quot;Helvetica Neue&quot;, sans-serif; font-size: 12px; font-weight: 200;" fill="rgb(50, 49, 63)" stroke="none" stroke-width="1px">1.5</text><text x="0" y="98.8888888888889" dx="0em" dy="0.3em" style="text-anchor: end; visibility: hidden; font-family: &quot;Helvetica Neue&quot;, sans-serif; font-size: 12px; font-weight: 200;" fill="rgb(50, 49, 63)" stroke="none" stroke-width="1px">2</text><text x="0" y="79.1111111111111" dx="0em" dy="0.3em" style="text-anchor: end; visibility: inherit; font-family: &quot;Helvetica Neue&quot;, sans-serif; font-size: 12px; font-weight: 200;" fill="rgb(50, 49, 63)" stroke="none" stroke-width="1px">2.5</text><text x="0" y="59.33333333333334" dx="0em" dy="0.3em" style="text-anchor: end; visibility: hidden; font-family: &quot;Helvetica Neue&quot;, sans-serif; font-size: 12px; font-weight: 200;" fill="rgb(50, 49, 63)" stroke="none" stroke-width="1px">3</text><text x="0" y="39.55555555555554" dx="0em" dy="0.3em" style="text-anchor: end; visibility: inherit; font-family: &quot;Helvetica Neue&quot;, sans-serif; font-size: 12px; font-weight: 200;" fill="rgb(50, 49, 63)" stroke="none" stroke-width="1px">3.5</text><text x="0" y="19.7777777777778" dx="0em" dy="0.3em" style="text-anchor: end; visibility: hidden; font-family: &quot;Helvetica Neue&quot;, sans-serif; font-size: 12px; font-weight: 200;" fill="rgb(50, 49, 63)" stroke="none" stroke-width="1px">4</text><text x="0" y="0" dx="0em" dy="0.3em" style="text-anchor: end; visibility: hidden; font-family: &quot;Helvetica Neue&quot;, sans-serif; font-size: 12px; font-weight: 200;" fill="rgb(50, 49, 63)" stroke="none" stroke-width="1px">4.5</text></g><line x1="40" y1="0" x2="40" y2="178" fill="rgb(0, 0, 0)" stroke="rgb(204, 204, 204)" stroke-width="1px"></line></g></g><g transform="translate(40, 0)" clip-path="url(#clip_0)"><clipPath id="clip_0"><rect width="290" height="178"></rect></clipPath><g><g><g><line x1="0" y1="0" x2="0" y2="178" fill="rgb(0, 0, 0)" stroke="rgb(60, 60, 60)" stroke-width="1px" opacity="0.25"></line><line x1="24.166666666666664" y1="0" x2="24.166666666666664" y2="178" fill="rgb(0, 0, 0)" stroke="rgb(60, 60, 60)" stroke-width="1px" opacity="0.25"></line><line x1="48.33333333333333" y1="0" x2="48.33333333333333" y2="178" fill="rgb(0, 0, 0)" stroke="rgb(60, 60, 60)" stroke-width="1px" opacity="0.25"></line><line x1="72.5" y1="0" x2="72.5" y2="178" fill="rgb(0, 0, 0)" stroke="rgb(60, 60, 60)" stroke-width="1px" opacity="0.25"></line><line x1="96.66666666666666" y1="0" x2="96.66666666666666" y2="178" fill="rgb(0, 0, 0)" stroke="rgb(60, 60, 60)" stroke-width="1px" opacity="0.25"></line><line x1="120.83333333333334" y1="0" x2="120.83333333333334" y2="178" fill="rgb(0, 0, 0)" stroke="rgb(60, 60, 60)" stroke-width="1px" opacity="0.25"></line><line x1="145" y1="0" x2="145" y2="178" fill="rgb(0, 0, 0)" stroke="rgb(60, 60, 60)" stroke-width="1px" opacity="0.25"></line><line x1="169.16666666666669" y1="0" x2="169.16666666666669" y2="178" fill="rgb(0, 0, 0)" stroke="rgb(60, 60, 60)" stroke-width="1px" opacity="0.25"></line><line x1="193.33333333333331" y1="0" x2="193.33333333333331" y2="178" fill="rgb(0, 0, 0)" stroke="rgb(60, 60, 60)" stroke-width="1px" opacity="0.25"></line><line x1="217.5" y1="0" x2="217.5" y2="178" fill="rgb(0, 0, 0)" stroke="rgb(60, 60, 60)" stroke-width="1px" opacity="0.25"></line><line x1="241.66666666666669" y1="0" x2="241.66666666666669" y2="178" fill="rgb(0, 0, 0)" stroke="rgb(60, 60, 60)" stroke-width="1px" opacity="0.25"></line><line x1="265.8333333333333" y1="0" x2="265.8333333333333" y2="178" fill="rgb(0, 0, 0)" stroke="rgb(60, 60, 60)" stroke-width="1px" opacity="0.25"></line><line x1="290" y1="0" x2="290" y2="178" fill="rgb(0, 0, 0)" stroke="rgb(60, 60, 60)" stroke-width="1px" opacity="0.25"></line></g><g><line x1="0" y1="178" x2="290" y2="178" fill="rgb(0, 0, 0)" stroke="rgb(60, 60, 60)" stroke-width="1px" opacity="0.25"></line><line x1="0" y1="158.22222222222223" x2="290" y2="158.22222222222223" fill="rgb(0, 0, 0)" stroke="rgb(60, 60, 60)" stroke-width="1px" opacity="0.25"></line><line x1="0" y1="138.44444444444446" x2="290" y2="138.44444444444446" fill="rgb(0, 0, 0)" stroke="rgb(60, 60, 60)" stroke-width="1px" opacity="0.25"></line><line x1="0" y1="118.66666666666667" x2="290" y2="118.66666666666667" fill="rgb(0, 0, 0)" stroke="rgb(60, 60, 60)" stroke-width="1px" opacity="0.25"></line><line x1="0" y1="98.8888888888889" x2="290" y2="98.8888888888889" fill="rgb(0, 0, 0)" stroke="rgb(60, 60, 60)" stroke-width="1px" opacity="0.25"></line><line x1="0" y1="79.1111111111111" x2="290" y2="79.1111111111111" fill="rgb(0, 0, 0)" stroke="rgb(60, 60, 60)" stroke-width="1px" opacity="0.25"></line><line x1="0" y1="59.33333333333334" x2="290" y2="59.33333333333334" fill="rgb(0, 0, 0)" stroke="rgb(60, 60, 60)" stroke-width="1px" opacity="0.25"></line><line x1="0" y1="39.55555555555554" x2="290" y2="39.55555555555554" fill="rgb(0, 0, 0)" stroke="rgb(60, 60, 60)" stroke-width="1px" opacity="0.25"></line><line x1="0" y1="19.7777777777778" x2="290" y2="19.7777777777778" fill="rgb(0, 0, 0)" stroke="rgb(60, 60, 60)" stroke-width="1px" opacity="0.25"></line><line x1="0" y1="0" x2="290" y2="0" fill="rgb(0, 0, 0)" stroke="rgb(60, 60, 60)" stroke-width="1px" opacity="0.25"></line></g></g></g><g><g><line x1="0" y1="178" x2="290" y2="178" fill="rgb(0, 0, 0)" stroke="rgb(153, 153, 153)" stroke-width="1.5px"></line></g></g><g><g><line x1="24.166666666666664" y1="0" x2="24.166666666666664" y2="178" fill="rgb(0, 0, 0)" stroke="rgb(153, 153, 153)" stroke-width="1.5px"></line></g></g><g><g><g><g><g><path stroke="rgb(0, 153, 136)" stroke-width="2px" d="M24.166666666666664,106.57315391964381L29,101.64041778776381L33.833333333333336,95.17858452267116L38.666666666666664,92.202390882704L43.5,88.63699044121635L48.33333333333333,83.57669830322266L53.166666666666664,82.28350268469917L58,77.8114931318495L62.833333333333336,75.24886745876735L67.66666666666667,69.94903352525499L72.5,69.5213476816813L77.33333333333333,65.69781737857396L82.16666666666667,63.31896930270726L87,62.70981640285915L91.83333333333333,57.74689706166586L96.66666666666666,56.493999163309724L101.5,53.30275546179878L106.33333333333333,54.022550264994294L111.16666666666667,49.84229130215115L116,48.66893259684244L120.83333333333334,46.37520673539905L125.66666666666667,44.25641240013968L130.5,42.763755798339844L135.33333333333334,39.46047443813748L140.16666666666666,38.311069912380646L145,36.999663458930144L149.83333333333334,35.84841050042044L154.66666666666666,35.38598166571725L159.5,30.78755251566568L164.33333333333334,31.491861979166657L169.16666666666669,29.598915947808138L174,26.472556008232942L178.83333333333334,24.673219892713746L183.66666666666666,27.57998413509793L188.5,23.79079129960803L193.33333333333331,23.994411256578246L198.16666666666666,22.281630833943694L203,18.808067321777344L207.83333333333334,16.88973363240561L212.66666666666666,15.657206217447907L217.5,15.593340979682097L222.33333333333334,14.26190355088977L227.16666666666666,13.250603357950837L232,11.551837073432097L236.83333333333334,9.74793646070691L241.66666666666669,10.65740309821237L246.5,8.78392219543457L251.33333333333334,9.175903108384887L256.1666666666667,6.575026194254548L261,5.937203725179046" style="fill: none;" fill="none"></path></g><g><path stroke="rgb(238, 51, 119)" stroke-width="2px" d="M24.166666666666664,98.59994867112901L29,115.10020997789172L33.833333333333336,120.05633915795221L38.666666666666664,122.99928458531697L43.5,125.15081787109375L48.33333333333333,126.4856645266215L53.166666666666664,128.00346358617145L58,128.433186478085L62.833333333333336,129.11387655470105L67.66666666666667,130.3114629321628L72.5,130.4745635456509L77.33333333333333,131.4201076295641L82.16666666666667,131.64119338989258L87,132.09247504340277L91.83333333333333,132.17385323842365L96.66666666666666,132.70688088734943L101.5,132.3237083223131L106.33333333333333,132.95047791798908L111.16666666666667,133.6035452418857L116,133.26309882269965L120.83333333333334,133.67851522233752L125.66666666666667,133.61666345596313L130.5,133.47860156165228L135.33333333333334,134.19890562693277L140.16666666666666,133.6324317190382L145,134.157509220971L149.83333333333334,134.14914411968655L154.66666666666666,134.69628964530096L159.5,134.70819600423178L164.33333333333334,134.59127791722617L169.16666666666669,134.77047687106662L174,134.1932282977634L178.83333333333334,134.8509685728285L183.66666666666666,134.54121462504068L188.5,134.05419974856906L193.33333333333331,135.12441402011447L198.16666666666666,134.95553233888415L203,135.0955605506897L207.83333333333334,134.61935806274414L212.66666666666666,135.9791349834866L217.5,135.0449644194709L222.33333333333334,135.5375623173184L227.16666666666666,135.54922819137573L232,135.3800400098165L236.83333333333334,134.75903262032404L241.66666666666669,134.99667882919312L246.5,135.99152702755399L251.33333333333334,135.69963026046753L256.1666666666667,134.9523353046841L261,135.5584750705295" style="fill: none;" fill="none"></path></g><g><path stroke="rgb(51, 187, 238)" stroke-width="2px" d="M24.166666666666664,120.03883091608684L29,125.03634235594006L33.833333333333336,126.90519274605646L38.666666666666664,128.00202539232043L43.5,128.53606213463678L48.33333333333333,128.84813605414496L53.166666666666664,128.96030574374728L58,129.11523930231732L62.833333333333336,128.97556946012708L67.66666666666667,128.77288315031262L72.5,128.6273143556383L77.33333333333333,128.53469938702054L82.16666666666667,128.25426573223538L87,128.0286390516493L91.83333333333333,127.82680622736613L96.66666666666666,127.55369557274713L101.5,127.21745528115167L106.33333333333333,127.01759820514255L111.16666666666667,126.57828421062894L116,126.28266700108846L120.83333333333334,126.05003796683417L125.66666666666667,125.82574574152629L130.5,125.43013869391547L135.33333333333334,125.30821757846408L140.16666666666666,124.95326662063599L145,124.68404144710965L149.83333333333334,124.42410559124417L154.66666666666666,124.11518626742892L159.5,123.87303686141968L164.33333333333334,123.52590873506335L169.16666666666669,123.23346969816419L174,123.02874634000989L178.83333333333334,122.78532377878825L183.66666666666666,122.33674404356213L188.5,122.167786916097L193.33333333333331,121.91711680094402L198.16666666666666,121.73827150132922L203,121.34282477696736L207.83333333333334,121.0533422893948L212.66666666666666,120.97093142403497L217.5,120.76700025134616L222.33333333333334,120.55480300055609L227.16666666666666,120.17401642269559L232,119.83295700285169L236.83333333333334,119.77454747094049L241.66666666666669,119.35360934999255L246.5,119.26916143629285L251.33333333333334,118.96249606874255L256.1666666666667,118.61340162489148L261,118.37699556350708" style="fill: none;" fill="none"></path></g><g><path stroke="rgb(204, 51, 17)" stroke-width="2px" d="M24.166666666666664,100.9128237300449L29,124.12644661797418L33.833333333333336,129.87113041347928L38.666666666666664,133.4725045628018L43.5,136.04343875249228L48.33333333333333,138.14426273769803L53.166666666666664,139.8888578944736L58,141.33219152026706L62.833333333333336,142.50518478287592L67.66666666666667,143.6877597173055L72.5,144.580220301946L77.33333333333333,145.4694979985555L82.16666666666667,146.15530191527472L87,146.89158879386054L91.83333333333333,147.52974841329785L96.66666666666666,148.00377003351846L101.5,148.63475754525928L106.33333333333333,149.13101222780017L111.16666666666667,149.62810153431363L116,150.06764186753168L120.83333333333334,150.3299472067091L125.66666666666667,150.77449999915228L130.5,151.20600530836316L135.33333333333334,151.40666635831198L140.16666666666666,151.86131480005054L145,152.02412541707358L149.83333333333334,152.3912397225698L154.66666666666666,152.6392833656735L159.5,152.8559272289276L164.33333333333334,153.116968843672L169.16666666666669,153.25331433614096L174,153.5679251352946L178.83333333333334,153.86583638191223L183.66666666666666,153.918351676729L188.5,154.16528956095377L193.33333333333331,154.2311376200782L198.16666666666666,154.5795624785953L203,154.63019633293152L207.83333333333334,154.9184457461039L212.66666666666666,155.00665889845953L217.5,155.14109230041504L222.33333333333334,155.3393485016293L227.16666666666666,155.3711231549581L232,155.54854204919604L236.83333333333334,155.65508392122058L241.66666666666669,155.60227155685425L246.5,155.8845960828993L251.33333333333334,156.07633561558194L256.1666666666667,156.1704477204217L261,156.20822978019714" style="fill: none;" fill="none"></path></g><g><path stroke="rgb(0, 119, 187)" stroke-width="2px" d="M24.166666666666664,73.74305491977269L29,95.59939532809788L33.833333333333336,104.97144921620686L38.666666666666664,110.23226801554362L43.5,113.64256042904323L48.33333333333333,116.05750481287639L53.166666666666664,117.88632154464722L58,119.32826413048639L62.833333333333336,120.50656456417508L67.66666666666667,121.48032553990681L72.5,122.30280266867743L77.33333333333333,123.02129130893283L82.16666666666667,123.64990462197198L87,124.19603162341647L91.83333333333333,124.68036344316272L96.66666666666666,125.1247747739156L101.5,125.51755258772107L106.33333333333333,125.87482823265924L111.16666666666667,126.19966671201917L116,126.50212595197888L120.83333333333334,126.75668154822455L125.66666666666667,127.00581916173299L130.5,127.252782980601L135.33333333333334,127.44682126575046L140.16666666666666,127.64308049943713L145,127.83610969119601L149.83333333333334,128.00546291139392L154.66666666666666,128.1595288382636L159.5,128.307959874471L164.33333333333334,128.43633635838825L169.16666666666669,128.58554071850247L174,128.70208157433404L178.83333333333334,128.81216706169977L183.66666666666666,128.9238274892171L188.5,129.0358887248569L193.33333333333331,129.11471117867364L198.16666666666666,129.21011294258966L203,129.28755850262112L207.83333333333334,129.36826711230808L212.66666666666666,129.44050216674805L217.5,129.49738391240436L222.33333333333334,129.57875739203558L227.16666666666666,129.63607766893176L232,129.69725041919284L236.83333333333334,129.74323489930896L241.66666666666669,129.7937650150723L246.5,129.8445922003852L251.33333333333334,129.90455781088934L256.1666666666667,129.94471878475613L261,129.98770427703857" style="fill: none;" fill="none"></path></g><g><path stroke="rgb(255, 112, 67)" stroke-width="2px" d="M24.166666666666664,42.01526313357883L29,85.28053834703233L33.833333333333336,100.02759891086156L38.666666666666664,107.45173947016399L43.5,112.20330561531915L48.33333333333333,115.42885377671985L53.166666666666664,117.92756705813937L58,120.04773828718396L62.833333333333336,121.58023993174235L67.66666666666667,123.11713160408868L72.5,124.26842700110541L77.33333333333333,125.37411986456976L82.16666666666667,126.47815291086833L87,127.23600090874567L91.83333333333333,128.1012749142117L96.66666666666666,128.83573929468793L101.5,129.5531528260973L106.33333333333333,130.16371562745837L111.16666666666667,130.84908808602228L116,131.3787253697713L120.83333333333334,131.89730978012085L125.66666666666667,132.4400322702196L130.5,132.98052438100177L135.33333333333334,133.27793343861896L140.16666666666666,133.84387922286987L145,134.21317439609103L149.83333333333334,134.60405190785727L154.66666666666666,134.96784422132703L159.5,135.37355634901257L164.33333333333334,135.6380991405911L169.16666666666669,136.05971156226263L174,136.34299331241183L178.83333333333334,136.70603116353354L183.66666666666666,137.01886426077948L188.5,137.25375196668836L193.33333333333331,137.65482415093317L198.16666666666666,137.8888347943624L203,138.1349262661404L207.83333333333334,138.33109590742322L212.66666666666666,138.6757743888431L217.5,138.94166342417398L222.33333333333334,139.1558482117123L227.16666666666666,139.3195547527737L232,139.5364508893755L236.83333333333334,139.88288349575467L241.66666666666669,140.18196415901184L246.5,140.2519405417972L251.33333333333334,140.48477233780756L256.1666666666667,140.6508106390635L261,140.85755218399896" style="fill: none;" fill="none"></path></g></g></g></g></g></g><g transform="translate(40, 178)" clip-path="url(#clip_1)"><clipPath id="clip_1"><rect width="290" height="22"></rect></clipPath><g><g><line x1="0" y1="0" x2="0" y2="5" style="visibility: inherit;" fill="rgb(0, 0, 0)" stroke="rgb(204, 204, 204)" stroke-width="1px"></line><line x1="24.166666666666664" y1="0" x2="24.166666666666664" y2="5" style="visibility: inherit;" fill="rgb(0, 0, 0)" stroke="rgb(204, 204, 204)" stroke-width="1px"></line><line x1="48.33333333333333" y1="0" x2="48.33333333333333" y2="5" style="visibility: inherit;" fill="rgb(0, 0, 0)" stroke="rgb(204, 204, 204)" stroke-width="1px"></line><line x1="72.5" y1="0" x2="72.5" y2="5" style="visibility: inherit;" fill="rgb(0, 0, 0)" stroke="rgb(204, 204, 204)" stroke-width="1px"></line><line x1="96.66666666666666" y1="0" x2="96.66666666666666" y2="5" style="visibility: inherit;" fill="rgb(0, 0, 0)" stroke="rgb(204, 204, 204)" stroke-width="1px"></line><line x1="120.83333333333334" y1="0" x2="120.83333333333334" y2="5" style="visibility: inherit;" fill="rgb(0, 0, 0)" stroke="rgb(204, 204, 204)" stroke-width="1px"></line><line x1="145" y1="0" x2="145" y2="5" style="visibility: inherit;" fill="rgb(0, 0, 0)" stroke="rgb(204, 204, 204)" stroke-width="1px"></line><line x1="169.16666666666669" y1="0" x2="169.16666666666669" y2="5" style="visibility: inherit;" fill="rgb(0, 0, 0)" stroke="rgb(204, 204, 204)" stroke-width="1px"></line><line x1="193.33333333333331" y1="0" x2="193.33333333333331" y2="5" style="visibility: inherit;" fill="rgb(0, 0, 0)" stroke="rgb(204, 204, 204)" stroke-width="1px"></line><line x1="217.5" y1="0" x2="217.5" y2="5" style="visibility: inherit;" fill="rgb(0, 0, 0)" stroke="rgb(204, 204, 204)" stroke-width="1px"></line><line x1="241.66666666666669" y1="0" x2="241.66666666666669" y2="5" style="visibility: inherit;" fill="rgb(0, 0, 0)" stroke="rgb(204, 204, 204)" stroke-width="1px"></line><line x1="265.8333333333333" y1="0" x2="265.8333333333333" y2="5" style="visibility: inherit;" fill="rgb(0, 0, 0)" stroke="rgb(204, 204, 204)" stroke-width="1px"></line><line x1="290" y1="0" x2="290" y2="5" style="visibility: inherit;" fill="rgb(0, 0, 0)" stroke="rgb(204, 204, 204)" stroke-width="1px"></line></g><g transform="translate(0, 8)"><text x="0" y="0" dx="0em" dy="0.95em" style="text-anchor: middle; visibility: hidden; font-family: &quot;Helvetica Neue&quot;, sans-serif; font-size: 12px; font-weight: 200;" fill="rgb(50, 49, 63)" stroke="none" stroke-width="1px">-5</text><text x="24.166666666666664" y="0" dx="0em" dy="0.95em" style="text-anchor: middle; visibility: inherit; font-family: &quot;Helvetica Neue&quot;, sans-serif; font-size: 12px; font-weight: 200;" fill="rgb(50, 49, 63)" stroke="none" stroke-width="1px">0</text><text x="48.33333333333333" y="0" dx="0em" dy="0.95em" style="text-anchor: middle; visibility: inherit; font-family: &quot;Helvetica Neue&quot;, sans-serif; font-size: 12px; font-weight: 200;" fill="rgb(50, 49, 63)" stroke="none" stroke-width="1px">5</text><text x="72.5" y="0" dx="0em" dy="0.95em" style="text-anchor: middle; visibility: inherit; font-family: &quot;Helvetica Neue&quot;, sans-serif; font-size: 12px; font-weight: 200;" fill="rgb(50, 49, 63)" stroke="none" stroke-width="1px">10</text><text x="96.66666666666666" y="0" dx="0em" dy="0.95em" style="text-anchor: middle; visibility: inherit; font-family: &quot;Helvetica Neue&quot;, sans-serif; font-size: 12px; font-weight: 200;" fill="rgb(50, 49, 63)" stroke="none" stroke-width="1px">15</text><text x="120.83333333333334" y="0" dx="0em" dy="0.95em" style="text-anchor: middle; visibility: inherit; font-family: &quot;Helvetica Neue&quot;, sans-serif; font-size: 12px; font-weight: 200;" fill="rgb(50, 49, 63)" stroke="none" stroke-width="1px">20</text><text x="145" y="0" dx="0em" dy="0.95em" style="text-anchor: middle; visibility: inherit; font-family: &quot;Helvetica Neue&quot;, sans-serif; font-size: 12px; font-weight: 200;" fill="rgb(50, 49, 63)" stroke="none" stroke-width="1px">25</text><text x="169.16666666666669" y="0" dx="0em" dy="0.95em" style="text-anchor: middle; visibility: inherit; font-family: &quot;Helvetica Neue&quot;, sans-serif; font-size: 12px; font-weight: 200;" fill="rgb(50, 49, 63)" stroke="none" stroke-width="1px">30</text><text x="193.33333333333331" y="0" dx="0em" dy="0.95em" style="text-anchor: middle; visibility: inherit; font-family: &quot;Helvetica Neue&quot;, sans-serif; font-size: 12px; font-weight: 200;" fill="rgb(50, 49, 63)" stroke="none" stroke-width="1px">35</text><text x="217.5" y="0" dx="0em" dy="0.95em" style="text-anchor: middle; visibility: inherit; font-family: &quot;Helvetica Neue&quot;, sans-serif; font-size: 12px; font-weight: 200;" fill="rgb(50, 49, 63)" stroke="none" stroke-width="1px">40</text><text x="241.66666666666669" y="0" dx="0em" dy="0.95em" style="text-anchor: middle; visibility: inherit; font-family: &quot;Helvetica Neue&quot;, sans-serif; font-size: 12px; font-weight: 200;" fill="rgb(50, 49, 63)" stroke="none" stroke-width="1px">45</text><text x="265.8333333333333" y="0" dx="0em" dy="0.95em" style="text-anchor: middle; visibility: inherit; font-family: &quot;Helvetica Neue&quot;, sans-serif; font-size: 12px; font-weight: 200;" fill="rgb(50, 49, 63)" stroke="none" stroke-width="1px">50</text><text x="290" y="0" dx="0em" dy="0.95em" style="text-anchor: middle; visibility: hidden; font-family: &quot;Helvetica Neue&quot;, sans-serif; font-size: 12px; font-weight: 200;" fill="rgb(50, 49, 63)" stroke="none" stroke-width="1px">55</text></g><line x1="0" y1="0" x2="290" y2="0" fill="rgb(0, 0, 0)" stroke="rgb(204, 204, 204)" stroke-width="1px"></line></g></g></g></g></svg>