<svg viewBox="0 0 330 200" xmlns="http://www.w3.org/2000/svg"><g><g><g><g><g><line x1="50" y1="165.28571428571433" x2="45" y2="165.28571428571433" style="visibility: inherit;" fill="rgb(0, 0, 0)" stroke="rgb(204, 204, 204)" stroke-width="1px"></line><line x1="50" y1="152.5714285714286" x2="45" y2="152.5714285714286" style="visibility: inherit;" fill="rgb(0, 0, 0)" stroke="rgb(204, 204, 204)" stroke-width="1px"></line><line x1="50" y1="139.8571428571429" x2="45" y2="139.8571428571429" style="visibility: inherit;" fill="rgb(0, 0, 0)" stroke="rgb(204, 204, 204)" stroke-width="1px"></line><line x1="50" y1="127.14285714285715" x2="45" y2="127.14285714285715" style="visibility: inherit;" fill="rgb(0, 0, 0)" stroke="rgb(204, 204, 204)" stroke-width="1px"></line><line x1="50" y1="114.42857142857143" x2="45" y2="114.42857142857143" style="visibility: inherit;" fill="rgb(0, 0, 0)" stroke="rgb(204, 204, 204)" stroke-width="1px"></line><line x1="50" y1="101.7142857142857" x2="45" y2="101.7142857142857" style="visibility: inherit;" fill="rgb(0, 0, 0)" stroke="rgb(204, 204, 204)" stroke-width="1px"></line><line x1="50" y1="89.00000000000004" x2="45" y2="89.00000000000004" style="visibility: inherit;" fill="rgb(0, 0, 0)" stroke="rgb(204, 204, 204)" stroke-width="1px"></line><line x1="50" y1="76.2857142857143" x2="45" y2="76.2857142857143" style="visibility: inherit;" fill="rgb(0, 0, 0)" stroke="rgb(204, 204, 204)" stroke-width="1px"></line><line x1="50" y1="63.571428571428584" x2="45" y2="63.571428571428584" style="visibility: inherit;" fill="rgb(0, 0, 0)" stroke="rgb(204, 204, 204)" stroke-width="1px"></line><line x1="50" y1="50.85714285714286" x2="45" y2="50.85714285714286" style="visibility: inherit;" fill="rgb(0, 0, 0)" stroke="rgb(204, 204, 204)" stroke-width="1px"></line><line x1="50" y1="38.14285714285714" x2="45" y2="38.14285714285714" style="visibility: inherit;" fill="rgb(0, 0, 0)" stroke="rgb(204, 204, 204)" stroke-width="1px"></line><line x1="50" y1="25.428571428571388" x2="45" y2="25.428571428571388" style="visibility: inherit;" fill="rgb(0, 0, 0)" stroke="rgb(204, 204, 204)" stroke-width="1px"></line><line x1="50" y1="12.714285714285722" x2="45" y2="12.714285714285722" style="visibility: inherit;" fill="rgb(0, 0, 0)" stroke="rgb(204, 204, 204)" stroke-width="1px"></line><line x1="50" y1="0" x2="45" y2="0" style="visibility: inherit;" fill="rgb(0, 0, 0)" stroke="rgb(204, 204, 204)" stroke-width="1px"></line></g><g transform="translate(40, 0)"><text x="0" y="165.28571428571433" dx="0em" dy="0.3em" style="text-anchor: end; visibility: inherit; font-family: &quot;Helvetica Neue&quot;, sans-serif; font-size: 12px; font-weight: 200;" fill="rgb(50, 49, 63)" stroke="none" stroke-width="1px">0.58</text><text x="0" y="152.5714285714286" dx="0em" dy="0.3em" style="text-anchor: end; visibility: hidden; font-family: &quot;Helvetica Neue&quot;, sans-serif; font-size: 12px; font-weight: 200;" fill="rgb(50, 49, 63)" stroke="none" stroke-width="1px">0.6</text><text x="0" y="139.8571428571429" dx="0em" dy="0.3em" style="text-anchor: end; visibility: inherit; font-family: &quot;Helvetica Neue&quot;, sans-serif; font-size: 12px; font-weight: 200;" fill="rgb(50, 49, 63)" stroke="none" stroke-width="1px">0.62</text><text x="0" y="127.14285714285715" dx="0em" dy="0.3em" style="text-anchor: end; visibility: hidden; font-family: &quot;Helvetica Neue&quot;, sans-serif; font-size: 12px; font-weight: 200;" fill="rgb(50, 49, 63)" stroke="none" stroke-width="1px">0.64</text><text x="0" y="114.42857142857143" dx="0em" dy="0.3em" style="text-anchor: end; visibility: inherit; font-family: &quot;Helvetica Neue&quot;, sans-serif; font-size: 12px; font-weight: 200;" fill="rgb(50, 49, 63)" stroke="none" stroke-width="1px">0.66</text><text x="0" y="101.7142857142857" dx="0em" dy="0.3em" style="text-anchor: end; visibility: hidden; font-family: &quot;Helvetica Neue&quot;, sans-serif; font-size: 12px; font-weight: 200;" fill="rgb(50, 49, 63)" stroke="none" stroke-width="1px">0.68</text><text x="0" y="89.00000000000004" dx="0em" dy="0.3em" style="text-anchor: end; visibility: inherit; font-family: &quot;Helvetica Neue&quot;, sans-serif; font-size: 12px; font-weight: 200;" fill="rgb(50, 49, 63)" stroke="none" stroke-width="1px">0.7</text><text x="0" y="76.2857142857143" dx="0em" dy="0.3em" style="text-anchor: end; visibility: hidden; font-family: &quot;Helvetica Neue&quot;, sans-serif; font-size: 12px; font-weight: 200;" fill="rgb(50, 49, 63)" stroke="none" stroke-width="1px">0.72</text><text x="0" y="63.571428571428584" dx="0em" dy="0.3em" style="text-anchor: end; visibility: inherit; font-family: &quot;Helvetica Neue&quot;, sans-serif; font-size: 12px; font-weight: 200;" fill="rgb(50, 49, 63)" stroke="none" stroke-width="1px">0.74</text><text x="0" y="50.85714285714286" dx="0em" dy="0.3em" style="text-anchor: end; visibility: hidden; font-family: &quot;Helvetica Neue&quot;, sans-serif; font-size: 12px; font-weight: 200;" fill="rgb(50, 49, 63)" stroke="none" stroke-width="1px">0.76</text><text x="0" y="38.14285714285714" dx="0em" dy="0.3em" style="text-anchor: end; visibility: inherit; font-family: &quot;Helvetica Neue&quot;, sans-serif; font-size: 12px; font-weight: 200;" fill="rgb(50, 49, 63)" stroke="none" stroke-width="1px">0.78</text><text x="0" y="25.428571428571388" dx="0em" dy="0.3em" style="text-anchor: end; visibility: hidden; font-family: &quot;Helvetica Neue&quot;, sans-serif; font-size: 12px; font-weight: 200;" fill="rgb(50, 49, 63)" stroke="none" stroke-width="1px">0.8</text><text x="0" y="12.714285714285722" dx="0em" dy="0.3em" style="text-anchor: end; visibility: inherit; font-family: &quot;Helvetica Neue&quot;, sans-serif; font-size: 12px; font-weight: 200;" fill="rgb(50, 49, 63)" stroke="none" stroke-width="1px">0.82</text><text x="0" y="0" dx="0em" dy="0.3em" style="text-anchor: end; visibility: hidden; font-family: &quot;Helvetica Neue&quot;, sans-serif; font-size: 12px; font-weight: 200;" fill="rgb(50, 49, 63)" stroke="none" stroke-width="1px">0.84</text></g><line x1="50" y1="0" x2="50" y2="178" fill="rgb(0, 0, 0)" stroke="rgb(204, 204, 204)" stroke-width="1px"></line></g></g><g transform="translate(50, 0)" clip-path="url(#clip_0)"><clipPath id="clip_0"><rect width="280" height="178"></rect></clipPath><g><g><g><line x1="0" y1="0" x2="0" y2="178" fill="rgb(0, 0, 0)" stroke="rgb(60, 60, 60)" stroke-width="1px" opacity="0.25"></line><line x1="23.333333333333332" y1="0" x2="23.333333333333332" y2="178" fill="rgb(0, 0, 0)" stroke="rgb(60, 60, 60)" stroke-width="1px" opacity="0.25"></line><line x1="46.666666666666664" y1="0" x2="46.666666666666664" y2="178" fill="rgb(0, 0, 0)" stroke="rgb(60, 60, 60)" stroke-width="1px" opacity="0.25"></line><line x1="70" y1="0" x2="70" y2="178" fill="rgb(0, 0, 0)" stroke="rgb(60, 60, 60)" stroke-width="1px" opacity="0.25"></line><line x1="93.33333333333333" y1="0" x2="93.33333333333333" y2="178" fill="rgb(0, 0, 0)" stroke="rgb(60, 60, 60)" stroke-width="1px" opacity="0.25"></line><line x1="116.66666666666667" y1="0" x2="116.66666666666667" y2="178" fill="rgb(0, 0, 0)" stroke="rgb(60, 60, 60)" stroke-width="1px" opacity="0.25"></line><line x1="140" y1="0" x2="140" y2="178" fill="rgb(0, 0, 0)" stroke="rgb(60, 60, 60)" stroke-width="1px" opacity="0.25"></line><line x1="163.33333333333334" y1="0" x2="163.33333333333334" y2="178" fill="rgb(0, 0, 0)" stroke="rgb(60, 60, 60)" stroke-width="1px" opacity="0.25"></line><line x1="186.66666666666666" y1="0" x2="186.66666666666666" y2="178" fill="rgb(0, 0, 0)" stroke="rgb(60, 60, 60)" stroke-width="1px" opacity="0.25"></line><line x1="210" y1="0" x2="210" y2="178" fill="rgb(0, 0, 0)" stroke="rgb(60, 60, 60)" stroke-width="1px" opacity="0.25"></line><line x1="233.33333333333334" y1="0" x2="233.33333333333334" y2="178" fill="rgb(0, 0, 0)" stroke="rgb(60, 60, 60)" stroke-width="1px" opacity="0.25"></line><line x1="256.66666666666663" y1="0" x2="256.66666666666663" y2="178" fill="rgb(0, 0, 0)" stroke="rgb(60, 60, 60)" stroke-width="1px" opacity="0.25"></line><line x1="280" y1="0" x2="280" y2="178" fill="rgb(0, 0, 0)" stroke="rgb(60, 60, 60)" stroke-width="1px" opacity="0.25"></line></g><g><line x1="0" y1="165.28571428571433" x2="280" y2="165.28571428571433" fill="rgb(0, 0, 0)" stroke="rgb(60, 60, 60)" stroke-width="1px" opacity="0.25"></line><line x1="0" y1="152.5714285714286" x2="280" y2="152.5714285714286" fill="rgb(0, 0, 0)" stroke="rgb(60, 60, 60)" stroke-width="1px" opacity="0.25"></line><line x1="0" y1="139.8571428571429" x2="280" y2="139.8571428571429" fill="rgb(0, 0, 0)" stroke="rgb(60, 60, 60)" stroke-width="1px" opacity="0.25"></line><line x1="0" y1="127.14285714285715" x2="280" y2="127.14285714285715" fill="rgb(0, 0, 0)" stroke="rgb(60, 60, 60)" stroke-width="1px" opacity="0.25"></line><line x1="0" y1="114.42857142857143" x2="280" y2="114.42857142857143" fill="rgb(0, 0, 0)" stroke="rgb(60, 60, 60)" stroke-width="1px" opacity="0.25"></line><line x1="0" y1="101.7142857142857" x2="280" y2="101.7142857142857" fill="rgb(0, 0, 0)" stroke="rgb(60, 60, 60)" stroke-width="1px" opacity="0.25"></line><line x1="0" y1="89.00000000000004" x2="280" y2="89.00000000000004" fill="rgb(0, 0, 0)" stroke="rgb(60, 60, 60)" stroke-width="1px" opacity="0.25"></line><line x1="0" y1="76.2857142857143" x2="280" y2="76.2857142857143" fill="rgb(0, 0, 0)" stroke="rgb(60, 60, 60)" stroke-width="1px" opacity="0.25"></line><line x1="0" y1="63.571428571428584" x2="280" y2="63.571428571428584" fill="rgb(0, 0, 0)" stroke="rgb(60, 60, 60)" stroke-width="1px" opacity="0.25"></line><line x1="0" y1="50.85714285714286" x2="280" y2="50.85714285714286" fill="rgb(0, 0, 0)" stroke="rgb(60, 60, 60)" stroke-width="1px" opacity="0.25"></line><line x1="0" y1="38.14285714285714" x2="280" y2="38.14285714285714" fill="rgb(0, 0, 0)" stroke="rgb(60, 60, 60)" stroke-width="1px" opacity="0.25"></line><line x1="0" y1="25.428571428571388" x2="280" y2="25.428571428571388" fill="rgb(0, 0, 0)" stroke="rgb(60, 60, 60)" stroke-width="1px" opacity="0.25"></line><line x1="0" y1="12.714285714285722" x2="280" y2="12.714285714285722" fill="rgb(0, 0, 0)" stroke="rgb(60, 60, 60)" stroke-width="1px" opacity="0.25"></line><line x1="0" y1="0" x2="280" y2="0" fill="rgb(0, 0, 0)" stroke="rgb(60, 60, 60)" stroke-width="1px" opacity="0.25"></line></g></g></g><g><g><line x1="0" y1="534.0000000000002" x2="280" y2="534.0000000000002" fill="rgb(0, 0, 0)" stroke="rgb(153, 153, 153)" stroke-width="1.5px"></line></g></g><g><g><line x1="23.333333333333332" y1="0" x2="23.333333333333332" y2="178" fill="rgb(0, 0, 0)" stroke="rgb(153, 153, 153)" stroke-width="1.5px"></line></g></g><g><g><g><g><g><path stroke="rgb(0, 153, 136)" stroke-width="2px" d="M23.333333333333332,152.85215171745847L28,153.6273365191051L32.666666666666664,151.8884565830231L37.333333333333336,149.1649274996349L42,150.0448444741113L46.666666666666664,150.9875855956759L51.33333333333333,148.99733328819278L56,150.65239717279164L60.66666666666667,149.4582078967776L65.33333333333333,154.23488921778545L70,152.70551151888714L74.66666666666667,153.43875040326802L79.33333333333333,152.22364500590737L84,151.05044763428828L88.66666666666666,153.64825264045174L93.33333333333333,152.51696329457423L98,154.46534546783994L102.66666666666666,149.98198243549894L107.33333333333334,152.45410125596186L112,151.99318875585286L116.66666666666667,152.28650704451974L121.33333333333334,151.80464053153995L126,151.80464053153995L130.66666666666666,153.60638250623433L135.33333333333334,155.65949685232982L140,154.21393520491466L144.66666666666669,152.9569217818124L149.33333333333334,151.28090388434276L154,153.29211020469668L158.66666666666666,152.7683735574995L163.33333333333334,152.077004807336L168,155.9946852752141L172.66666666666669,154.10916514056072L177.33333333333331,151.9094105958939L182,153.2502021789551L186.66666666666666,151.616092307227L191.33333333333334,152.20269099303658L196,152.9778757946832L200.66666666666666,154.27679724352703L205.33333333333331,154.75862586498263L210,152.5588713203158L214.66666666666669,154.44439145496915L219.33333333333334,152.7893275703703L224,153.60638250623433L228.66666666666666,152.0979588202068L233.33333333333334,154.44439145496915L238,154.31866737774442L242.66666666666669,154.23488921778545L247.33333333333331,153.39688026905063L252,153.4806584290096" style="fill: none;" fill="none"></path></g><g><path stroke="rgb(238, 51, 119)" stroke-width="2px" d="M23.333333333333332,192.2369808639799L28,136.45364734104703L32.666666666666664,116.85747723920007L37.333333333333336,106.58254630225046L42,98.03508995260512L46.666666666666664,93.65342777115958L51.33333333333333,87.32830931459155L56,84.93500486442022L60.66666666666667,81.41707997662681L65.33333333333333,76.495539358684L70,75.12795846802848L74.66666666666667,73.09454771450588L79.33333333333333,70.39534498964038L84,67.58818931238991L88.66666666666666,67.69614226477486L93.33333333333333,64.15120072024209L98,64.50211412566048L102.66666666666666,63.18849076543536L107.33333333333334,60.26436395304543L112,59.92246873038155L116.66666666666667,59.00473601477486L121.33333333333334,57.33125684942517L126,57.94305339881352L130.66666666666666,55.73871397972107L135.33333333333334,55.69373674052102L140,54.22718318871088L144.66666666666669,53.46241855621338L149.33333333333334,50.87116878373283L154,50.98813991887229L158.66666666666666,50.43030089991433L163.33333333333334,49.665536267416826L168,51.195065532411846L172.66666666666669,49.61154084546226L177.33333333333331,48.57687488624026L182,48.909751926149625L186.66666666666666,47.29023029123033L191.33333333333334,47.66812246186393L196,46.237565858023515L200.66666666666666,46.471508128302446L205.33333333333331,43.27744209766388L210,44.75301383222853L214.66666666666669,44.0782036781311L219.33333333333334,43.75430692945207L224,42.41370480401176L228.66666666666666,44.141179391316L233.33333333333334,44.34814289637973L238,40.2363441501345L242.66666666666669,41.67591893672943L247.33333333333331,42.30575185162681L252,40.245362332889016" style="fill: none;" fill="none"></path></g><g><path stroke="rgb(51, 187, 238)" stroke-width="2px" d="M23.333333333333332,141.32952867235457L28,125.17690239633833L32.666666666666664,118.40996876784735L37.333333333333336,113.77996553693501L42,110.57456994056703L46.666666666666664,110.32315967764174L51.33333333333333,109.33851053033558L56,108.12336724145074L60.66666666666667,108.31195335728783L65.33333333333333,109.69465296609063L70,109.3175565174648L74.66666666666667,108.75187395300185L79.33333333333333,109.82033915179117L84,110.09270342758725L88.66666666666666,109.84129316466196L93.33333333333333,109.86224717753275L98,110.32315967764174L102.66666666666666,111.34971685068949L107.33333333333334,111.51731106213163L112,112.83718652384623L116.66666666666667,112.52295211383276L121.33333333333334,112.20867981229512L126,112.94195658820017L130.66666666666666,112.60673027379174L135.33333333333334,113.92660573550634L140,113.44473922252656L144.66666666666669,113.27714501108443L149.33333333333334,114.2617941583906L154,114.80652270998274L158.66666666666666,115.07884909425465L163.33333333333334,115.97972008160184L168,115.72830981867655L172.66666666666669,115.33025935717993L177.33333333333331,117.13200133187432L182,116.77582100459509L186.66666666666666,116.33590040888106L191.33333333333334,117.50909778050016L196,118.76611120360239L200.66666666666666,118.3051987034934L205.33333333333331,118.3051987034934L210,118.13760449205128L214.66666666666669,118.9965674536569L219.33333333333334,119.05942949226926L224,120.33739692824228L228.66666666666666,119.47843396663669L233.33333333333334,119.91839245387487L238,119.75076035090856L242.66666666666669,120.42117508820127L247.33333333333331,121.21727601119451L252,121.48964028699059" style="fill: none;" fill="none"></path></g><g><path stroke="rgb(204, 51, 17)" stroke-width="2px" d="M23.333333333333332,199.32686395304546L28,126.17871640409743L32.666666666666664,104.6931233406067L37.333333333333336,91.03519923346383L42,81.15615894113269L46.666666666666664,72.53670869554792L51.33333333333333,65.56379674162183L56,60.561281936509275L60.66666666666667,55.729733688490725L65.33333333333333,50.61024774823869L70,48.11800852843692L74.66666666666667,44.0782036781311L79.33333333333333,41.999815685408464L84,37.58215655599321L88.66666666666666,35.53976551124026L93.33333333333333,33.72229855401176L98,31.526939426149625L102.66666666666666,29.376595429011758L107.33333333333334,28.179943203926058L112,25.570732848984846L116.66666666666667,24.608022894178106L121.33333333333334,21.908820169312605L126,20.676170996257213L130.66666666666666,20.433248434747952L135.33333333333334,17.941009214946178L140,18.813726799828657L144.66666666666669,16.546411667551297L149.33333333333334,16.52841319356645L154,14.854934028216746L158.66666666666666,13.68526056834628L163.33333333333334,13.703259042331126L168,12.704552139554693L172.66666666666669,11.45394238403864L177.33333333333331,11.336971248899175L182,10.851126125880626L186.66666666666666,9.90641464505876L191.33333333333334,8.484838332448675L196,8.574792810848777L200.66666666666666,7.144236207008333L205.33333333333331,7.081260493823436L210,5.81261437279835L214.66666666666669,6.028558169092435L219.33333333333334,6.136511121477383L224,5.209798114640364L228.66666666666666,4.5529864345277815L233.33333333333334,5.218816297394881L238,3.8422172239848464L242.66666666666669,3.365352392196627L247.33333333333331,2.645564998899175L252,2.168700167110984" style="fill: none;" fill="none"></path></g><g><path stroke="rgb(0, 119, 187)" stroke-width="2px" d="M28,193.70512585980555L32.666666666666664,174.59851425034662L37.333333333333336,162.57307067939217L42,154.57007764066972L46.666666666666664,148.32691855090007L51.33333333333333,142.6494041340692L56,138.43840537752425L60.66666666666667,135.0025535311018L65.33333333333333,132.2580704348428L70,130.41445832593104L74.66666666666667,128.38226010118214L79.33333333333333,126.32914575508664L84,124.59026581900463L88.66666666666666,123.33325239590238L93.33333333333333,121.25918403693609L98,120.33739692824228L102.66666666666666,118.9756134407861L107.33333333333334,118.3051987034934L112,117.21577949183329L116.66666666666667,116.41967856884006L121.33333333333334,115.56071560723443L126,115.07884909425465L130.66666666666666,114.21992402417321L135.33333333333334,114.0104217869895L140,112.64863829953332L144.66666666666669,112.29249586377827L149.33333333333334,111.66398915222715L154,111.03548244067602L158.66666666666666,109.9670172418867L163.33333333333334,110.17651947907041L168,109.67369895321984L172.66666666666669,109.04519224166872L177.33333333333331,108.85664401735579L182,108.43763954298838L186.66666666666666,108.1862292800631L191.33333333333334,108.03958908149175L196,107.62058460712434L200.66666666666666,107.53676855564119L205.33333333333331,107.34822033132826L210,107.26444217136928L214.66666666666669,106.8035296712603L219.33333333333334,106.5730734212058L224,106.67780559403558L228.66666666666666,106.53116539546423L233.33333333333334,105.96552072252547L238,106.27975513253895L242.66666666666669,105.75601848534176L247.33333333333331,105.29510598523277L252,105.86075065817153" style="fill: none;" fill="none"></path></g><g><path stroke="rgb(255, 112, 67)" stroke-width="2px" d="M32.666666666666664,186.44272266115465L37.333333333333336,170.16657001631603L42,157.80427079541346L46.666666666666664,148.5910224744252L51.33333333333333,143.05768530709406L56,134.41125629629408L60.66666666666667,129.82263060978482L65.33333333333333,124.60417200837819L70,121.9769631794521L74.66666666666667,117.54126768452782L79.33333333333333,112.54777106216977L84,110.82927676609586L88.66666666666666,107.12238684722357L93.33333333333333,105.64681511265893L98,102.70472771780832L102.66666666666666,99.66362977027894L107.33333333333334,97.42329340321677L112,95.25495093209403L116.66666666666667,94.17526984214784L121.33333333333334,91.97093042305538L126,89.73957434722357L130.66666666666666,88.0750754731042L135.33333333333334,86.55452649933952L140,84.8990079164505L144.66666666666669,83.48644978659493L149.33333333333334,81.92990386486053L154,79.75254321098328L158.66666666666666,79.30269503593445L163.33333333333334,77.53020531790597L168,76.16262442725045L172.66666666666669,74.39017260074615L177.33333333333331,73.58039283752441L182,72.62670106547219L186.66666666666666,71.12415056569236L191.33333333333334,70.36836622442517L196,69.06376104695457L200.66666666666666,68.79382182870593L205.33333333333331,66.17559329101017L210,66.17559329101017L214.66666666666669,64.99697743143354L219.33333333333334,64.98795924867902L224,63.70135254519326L228.66666666666666,62.3517701285226L233.33333333333334,61.45203588690076L238,61.523991891316L242.66666666666669,60.40831385340009L247.33333333333331,59.41862513337817L252,58.40191975661686" style="fill: none;" fill="none"></path></g></g></g></g></g></g><g transform="translate(50, 178)" clip-path="url(#clip_1)"><clipPath id="clip_1"><rect width="280" height="22"></rect></clipPath><g><g><line x1="0" y1="0" x2="0" y2="5" style="visibility: inherit;" fill="rgb(0, 0, 0)" stroke="rgb(204, 204, 204)" stroke-width="1px"></line><line x1="23.333333333333332" y1="0" x2="23.333333333333332" y2="5" style="visibility: inherit;" fill="rgb(0, 0, 0)" stroke="rgb(204, 204, 204)" stroke-width="1px"></line><line x1="46.666666666666664" y1="0" x2="46.666666666666664" y2="5" style="visibility: inherit;" fill="rgb(0, 0, 0)" stroke="rgb(204, 204, 204)" stroke-width="1px"></line><line x1="70" y1="0" x2="70" y2="5" style="visibility: inherit;" fill="rgb(0, 0, 0)" stroke="rgb(204, 204, 204)" stroke-width="1px"></line><line x1="93.33333333333333" y1="0" x2="93.33333333333333" y2="5" style="visibility: inherit;" fill="rgb(0, 0, 0)" stroke="rgb(204, 204, 204)" stroke-width="1px"></line><line x1="116.66666666666667" y1="0" x2="116.66666666666667" y2="5" style="visibility: inherit;" fill="rgb(0, 0, 0)" stroke="rgb(204, 204, 204)" stroke-width="1px"></line><line x1="140" y1="0" x2="140" y2="5" style="visibility: inherit;" fill="rgb(0, 0, 0)" stroke="rgb(204, 204, 204)" stroke-width="1px"></line><line x1="163.33333333333334" y1="0" x2="163.33333333333334" y2="5" style="visibility: inherit;" fill="rgb(0, 0, 0)" stroke="rgb(204, 204, 204)" stroke-width="1px"></line><line x1="186.66666666666666" y1="0" x2="186.66666666666666" y2="5" style="visibility: inherit;" fill="rgb(0, 0, 0)" stroke="rgb(204, 204, 204)" stroke-width="1px"></line><line x1="210" y1="0" x2="210" y2="5" style="visibility: inherit;" fill="rgb(0, 0, 0)" stroke="rgb(204, 204, 204)" stroke-width="1px"></line><line x1="233.33333333333334" y1="0" x2="233.33333333333334" y2="5" style="visibility: inherit;" fill="rgb(0, 0, 0)" stroke="rgb(204, 204, 204)" stroke-width="1px"></line><line x1="256.66666666666663" y1="0" x2="256.66666666666663" y2="5" style="visibility: inherit;" fill="rgb(0, 0, 0)" stroke="rgb(204, 204, 204)" stroke-width="1px"></line><line x1="280" y1="0" x2="280" y2="5" style="visibility: inherit;" fill="rgb(0, 0, 0)" stroke="rgb(204, 204, 204)" stroke-width="1px"></line></g><g transform="translate(0, 8)"><text x="0" y="0" dx="0em" dy="0.95em" style="text-anchor: middle; visibility: hidden; font-family: &quot;Helvetica Neue&quot;, sans-serif; font-size: 12px; font-weight: 200;" fill="rgb(50, 49, 63)" stroke="none" stroke-width="1px">-5</text><text x="23.333333333333332" y="0" dx="0em" dy="0.95em" style="text-anchor: middle; visibility: inherit; font-family: &quot;Helvetica Neue&quot;, sans-serif; font-size: 12px; font-weight: 200;" fill="rgb(50, 49, 63)" stroke="none" stroke-width="1px">0</text><text x="46.666666666666664" y="0" dx="0em" dy="0.95em" style="text-anchor: middle; visibility: inherit; font-family: &quot;Helvetica Neue&quot;, sans-serif; font-size: 12px; font-weight: 200;" fill="rgb(50, 49, 63)" stroke="none" stroke-width="1px">5</text><text x="70" y="0" dx="0em" dy="0.95em" style="text-anchor: middle; visibility: inherit; font-family: &quot;Helvetica Neue&quot;, sans-serif; font-size: 12px; font-weight: 200;" fill="rgb(50, 49, 63)" stroke="none" stroke-width="1px">10</text><text x="93.33333333333333" y="0" dx="0em" dy="0.95em" style="text-anchor: middle; visibility: inherit; font-family: &quot;Helvetica Neue&quot;, sans-serif; font-size: 12px; font-weight: 200;" fill="rgb(50, 49, 63)" stroke="none" stroke-width="1px">15</text><text x="116.66666666666667" y="0" dx="0em" dy="0.95em" style="text-anchor: middle; visibility: inherit; font-family: &quot;Helvetica Neue&quot;, sans-serif; font-size: 12px; font-weight: 200;" fill="rgb(50, 49, 63)" stroke="none" stroke-width="1px">20</text><text x="140" y="0" dx="0em" dy="0.95em" style="text-anchor: middle; visibility: inherit; font-family: &quot;Helvetica Neue&quot;, sans-serif; font-size: 12px; font-weight: 200;" fill="rgb(50, 49, 63)" stroke="none" stroke-width="1px">25</text><text x="163.33333333333334" y="0" dx="0em" dy="0.95em" style="text-anchor: middle; visibility: inherit; font-family: &quot;Helvetica Neue&quot;, sans-serif; font-size: 12px; font-weight: 200;" fill="rgb(50, 49, 63)" stroke="none" stroke-width="1px">30</text><text x="186.66666666666666" y="0" dx="0em" dy="0.95em" style="text-anchor: middle; visibility: inherit; font-family: &quot;Helvetica Neue&quot;, sans-serif; font-size: 12px; font-weight: 200;" fill="rgb(50, 49, 63)" stroke="none" stroke-width="1px">35</text><text x="210" y="0" dx="0em" dy="0.95em" style="text-anchor: middle; visibility: inherit; font-family: &quot;Helvetica Neue&quot;, sans-serif; font-size: 12px; font-weight: 200;" fill="rgb(50, 49, 63)" stroke="none" stroke-width="1px">40</text><text x="233.33333333333334" y="0" dx="0em" dy="0.95em" style="text-anchor: middle; visibility: inherit; font-family: &quot;Helvetica Neue&quot;, sans-serif; font-size: 12px; font-weight: 200;" fill="rgb(50, 49, 63)" stroke="none" stroke-width="1px">45</text><text x="256.66666666666663" y="0" dx="0em" dy="0.95em" style="text-anchor: middle; visibility: inherit; font-family: &quot;Helvetica Neue&quot;, sans-serif; font-size: 12px; font-weight: 200;" fill="rgb(50, 49, 63)" stroke="none" stroke-width="1px">50</text><text x="280" y="0" dx="0em" dy="0.95em" style="text-anchor: middle; visibility: hidden; font-family: &quot;Helvetica Neue&quot;, sans-serif; font-size: 12px; font-weight: 200;" fill="rgb(50, 49, 63)" stroke="none" stroke-width="1px">55</text></g><line x1="0" y1="0" x2="280" y2="0" fill="rgb(0, 0, 0)" stroke="rgb(204, 204, 204)" stroke-width="1px"></line></g></g></g></g></svg>